M48
;DRILL file {KiCad 4.0.5} date 03/17/17 16:41:23
;FORMAT={-:-/ absolute / metric / decimal}
FMAT,2
METRIC,TZ
T1C0.400
%
G90
G05
M71
T1
X111.2Y-47.6
X111.2Y-58.2
X111.2Y-73.6
X111.2Y-84.2
X111.2Y-99.6
X111.2Y-110.2
X111.2Y-125.6
X111.2Y-136.2
X112.Y-53.
X112.Y-79.
X112.Y-105.
X112.Y-131.
X113.9Y-49.4
X113.9Y-75.4
X113.9Y-101.4
X113.9Y-127.4
X114.2Y-45.8
X114.2Y-71.8
X114.2Y-97.8
X114.2Y-123.8
X115.435Y-45.835
X115.435Y-71.835
X115.435Y-97.835
X115.435Y-123.835
X115.6Y-57.8
X115.6Y-83.8
X115.6Y-109.8
X115.6Y-135.8
X116.7Y-49.3
X116.7Y-75.3
X116.7Y-101.3
X116.7Y-127.3
X118.Y-47.
X118.Y-73.
X118.Y-99.
X118.Y-125.
X118.9Y-46.3
X118.9Y-56.6
X118.9Y-72.3
X118.9Y-82.6
X118.9Y-98.3
X118.9Y-108.6
X118.9Y-124.3
X118.9Y-134.6
X124.7Y-47.6
X124.7Y-58.2
X124.7Y-73.6
X124.7Y-84.2
X124.7Y-99.6
X124.7Y-110.2
X124.7Y-125.6
X124.7Y-136.2
X125.5Y-53.
X125.5Y-79.
X125.5Y-105.
X125.5Y-131.
X127.4Y-49.4
X127.4Y-75.4
X127.4Y-101.4
X127.4Y-127.4
X127.7Y-45.8
X127.7Y-71.8
X127.7Y-97.8
X127.7Y-123.8
X128.935Y-45.835
X128.935Y-71.835
X128.935Y-97.835
X128.935Y-123.835
X129.1Y-57.8
X129.1Y-83.8
X129.1Y-109.8
X129.1Y-135.8
X130.2Y-49.3
X130.2Y-75.3
X130.2Y-101.3
X130.2Y-127.3
X131.5Y-47.
X131.5Y-73.
X131.5Y-99.
X131.5Y-125.
X132.4Y-46.3
X132.4Y-56.6
X132.4Y-72.3
X132.4Y-82.6
X132.4Y-98.3
X132.4Y-108.6
X132.4Y-124.3
X132.4Y-134.6
X138.2Y-47.6
X138.2Y-58.2
X138.2Y-73.6
X138.2Y-84.2
X138.2Y-99.6
X138.2Y-110.2
X138.2Y-125.6
X138.2Y-136.2
X139.Y-53.
X139.Y-79.
X139.Y-105.
X139.Y-131.
X140.9Y-49.4
X140.9Y-75.4
X140.9Y-101.4
X140.9Y-127.4
X141.2Y-45.8
X141.2Y-71.8
X141.2Y-97.8
X141.2Y-123.8
X142.435Y-45.835
X142.435Y-71.835
X142.435Y-97.835
X142.435Y-123.835
X142.6Y-57.8
X142.6Y-83.8
X142.6Y-109.8
X142.6Y-135.8
X143.7Y-49.3
X143.7Y-75.3
X143.7Y-101.3
X143.7Y-127.3
X145.Y-47.
X145.Y-73.
X145.Y-99.
X145.Y-125.
X145.9Y-46.3
X145.9Y-56.6
X145.9Y-72.3
X145.9Y-82.6
X145.9Y-98.3
X145.9Y-108.6
X145.9Y-124.3
X145.9Y-134.6
X151.7Y-47.6
X151.7Y-58.2
X151.7Y-73.6
X151.7Y-84.2
X151.7Y-99.6
X151.7Y-110.2
X151.7Y-125.6
X151.7Y-136.2
X152.5Y-53.
X152.5Y-79.
X152.5Y-105.
X152.5Y-131.
X154.4Y-49.4
X154.4Y-75.4
X154.4Y-101.4
X154.4Y-127.4
X154.7Y-45.8
X154.7Y-71.8
X154.7Y-97.8
X154.7Y-123.8
X155.935Y-45.835
X155.935Y-71.835
X155.935Y-97.835
X155.935Y-123.835
X156.1Y-57.8
X156.1Y-83.8
X156.1Y-109.8
X156.1Y-135.8
X157.2Y-49.3
X157.2Y-75.3
X157.2Y-101.3
X157.2Y-127.3
X158.5Y-47.
X158.5Y-73.
X158.5Y-99.
X158.5Y-125.
X159.4Y-46.3
X159.4Y-56.6
X159.4Y-72.3
X159.4Y-82.6
X159.4Y-98.3
X159.4Y-108.6
X159.4Y-124.3
X159.4Y-134.6
X165.2Y-47.6
X165.2Y-58.2
X165.2Y-73.6
X165.2Y-84.2
X165.2Y-99.6
X165.2Y-110.2
X165.2Y-125.6
X165.2Y-136.2
X166.Y-53.
X166.Y-79.
X166.Y-105.
X166.Y-131.
X167.9Y-49.4
X167.9Y-75.4
X167.9Y-101.4
X167.9Y-127.4
X168.2Y-45.8
X168.2Y-71.8
X168.2Y-97.8
X168.2Y-123.8
X169.435Y-45.835
X169.435Y-71.835
X169.435Y-97.835
X169.435Y-123.835
X169.6Y-57.8
X169.6Y-83.8
X169.6Y-109.8
X169.6Y-135.8
X170.7Y-49.3
X170.7Y-75.3
X170.7Y-101.3
X170.7Y-127.3
X172.Y-47.
X172.Y-73.
X172.Y-99.
X172.Y-125.
X172.9Y-46.3
X172.9Y-56.6
X172.9Y-72.3
X172.9Y-82.6
X172.9Y-98.3
X172.9Y-108.6
X172.9Y-124.3
X172.9Y-134.6
X178.7Y-47.6
X178.7Y-58.2
X178.7Y-73.6
X178.7Y-84.2
X178.7Y-99.6
X178.7Y-110.2
X178.7Y-125.6
X178.7Y-136.2
X179.5Y-53.
X179.5Y-79.
X179.5Y-105.
X179.5Y-131.
X181.4Y-49.4
X181.4Y-75.4
X181.4Y-101.4
X181.4Y-127.4
X181.7Y-45.8
X181.7Y-71.8
X181.7Y-97.8
X181.7Y-123.8
X182.935Y-45.835
X182.935Y-71.835
X182.935Y-97.835
X182.935Y-123.835
X183.1Y-57.8
X183.1Y-83.8
X183.1Y-109.8
X183.1Y-135.8
X184.2Y-49.3
X184.2Y-75.3
X184.2Y-101.3
X184.2Y-127.3
X185.5Y-47.
X185.5Y-73.
X185.5Y-99.
X185.5Y-125.
X186.4Y-46.3
X186.4Y-56.6
X186.4Y-72.3
X186.4Y-82.6
X186.4Y-98.3
X186.4Y-108.6
X186.4Y-124.3
X186.4Y-134.6
X192.2Y-47.6
X192.2Y-58.2
X192.2Y-73.6
X192.2Y-84.2
X192.2Y-99.6
X192.2Y-110.2
X192.2Y-125.6
X192.2Y-136.2
X193.Y-53.
X193.Y-79.
X193.Y-105.
X193.Y-131.
X194.9Y-49.4
X194.9Y-75.4
X194.9Y-101.4
X194.9Y-127.4
X195.2Y-45.8
X195.2Y-71.8
X195.2Y-97.8
X195.2Y-123.8
X196.435Y-45.835
X196.435Y-71.835
X196.435Y-97.835
X196.435Y-123.835
X196.6Y-57.8
X196.6Y-83.8
X196.6Y-109.8
X196.6Y-135.8
X197.7Y-49.3
X197.7Y-75.3
X197.7Y-101.3
X197.7Y-127.3
X199.Y-47.
X199.Y-73.
X199.Y-99.
X199.Y-125.
X199.9Y-46.3
X199.9Y-56.6
X199.9Y-72.3
X199.9Y-82.6
X199.9Y-98.3
X199.9Y-108.6
X199.9Y-124.3
X199.9Y-134.6
T0
M30
