G04 #@! TF.FileFunction,Legend,Top*
%FSLAX46Y46*%
G04 Gerber Fmt 4.6, Leading zero omitted, Abs format (unit mm)*
G04 Created by KiCad (PCBNEW 4.0.5) date 03/17/17 16:41:40*
%MOMM*%
%LPD*%
G01*
G04 APERTURE LIST*
%ADD10C,0.100000*%
%ADD11C,0.200000*%
%ADD12C,0.150000*%
%ADD13C,0.120000*%
G04 APERTURE END LIST*
D10*
D11*
X191200000Y-94500000D02*
X191200000Y-142000000D01*
X187200000Y-94500000D02*
X187200000Y-142000000D01*
X177700000Y-94000000D02*
X177700000Y-142000000D01*
X173700000Y-142000000D02*
X174200000Y-142000000D01*
X173700000Y-94000000D02*
X173700000Y-142000000D01*
X150700000Y-94000000D02*
X150700000Y-142000000D01*
X146700000Y-94500000D02*
X146700000Y-142000000D01*
X137200000Y-95000000D02*
X137200000Y-142000000D01*
X133200000Y-94500000D02*
X133200000Y-142000000D01*
X123700000Y-141500000D02*
X123700000Y-142000000D01*
X123700000Y-94000000D02*
X123700000Y-141500000D01*
X119700000Y-94000000D02*
X119700000Y-142000000D01*
X164200000Y-42000000D02*
X164200000Y-142000000D01*
X160200000Y-42000000D02*
X160200000Y-142000000D01*
X110200000Y-90000000D02*
X200700000Y-90000000D01*
X200700000Y-68000000D02*
X110200000Y-68000000D01*
X110200000Y-64000000D02*
X200700000Y-64000000D01*
X160200000Y-116000000D02*
X200700000Y-116000000D01*
X160200000Y-120000000D02*
X200700000Y-120000000D01*
X200700000Y-91500000D02*
X200700000Y-94500000D01*
X191200000Y-91000000D02*
X191200000Y-95000000D01*
X187200000Y-91000000D02*
X187200000Y-95000000D01*
X177700000Y-91500000D02*
X177700000Y-94500000D01*
X173700000Y-91500000D02*
X173700000Y-94500000D01*
X150700000Y-91500000D02*
X150700000Y-94500000D01*
X146700000Y-91500000D02*
X146700000Y-94500000D01*
X137200000Y-91500000D02*
X137200000Y-95000000D01*
X133200000Y-91500000D02*
X133200000Y-94500000D01*
X123700000Y-91500000D02*
X123700000Y-94000000D01*
X119700000Y-91500000D02*
X119700000Y-94000000D01*
X110200000Y-116000000D02*
X160200000Y-116000000D01*
X110200000Y-68000000D02*
X160200000Y-68000000D01*
X146700000Y-42000000D02*
X146700000Y-92000000D01*
X137200000Y-92000000D02*
X137200000Y-42000000D01*
X150700000Y-92000000D02*
X150700000Y-42000000D01*
X110200000Y-64000000D02*
X160200000Y-64000000D01*
X119700000Y-42000000D02*
X119700000Y-92000000D01*
X123700000Y-92000000D02*
X123700000Y-42000000D01*
X133200000Y-42000000D02*
X133200000Y-92000000D01*
X187200000Y-42000000D02*
X187200000Y-92000000D01*
X177700000Y-92000000D02*
X177700000Y-42000000D01*
X173700000Y-42000000D02*
X173700000Y-92000000D01*
X191200000Y-92000000D02*
X191200000Y-42000000D01*
X200700000Y-42000000D02*
X200700000Y-92000000D01*
X110200000Y-120000000D02*
X160200000Y-120000000D01*
D12*
X116700000Y-82500000D02*
X113700000Y-82500000D01*
X113700000Y-82500000D02*
X113700000Y-81100000D01*
X113700000Y-81100000D02*
X116700000Y-81100000D01*
X116700000Y-81100000D02*
X116700000Y-82500000D01*
X117950000Y-86450000D02*
X117650000Y-86050000D01*
X117650000Y-86050000D02*
X117950000Y-86050000D01*
X117950000Y-86450000D02*
X117950000Y-84550000D01*
X117950000Y-84550000D02*
X117950000Y-86050000D01*
X117950000Y-86050000D02*
X118250000Y-86050000D01*
X118250000Y-86050000D02*
X117950000Y-86450000D01*
X111550000Y-86550000D02*
X111550000Y-84350000D01*
X111550000Y-84350000D02*
X118350000Y-84350000D01*
X118350000Y-84350000D02*
X118350000Y-86550000D01*
X118350000Y-86550000D02*
X111550000Y-86550000D01*
D13*
X118000000Y-81800000D02*
X119400000Y-81800000D01*
X119400000Y-81800000D02*
X119400000Y-79000000D01*
X118000000Y-81800000D02*
X118000000Y-79000000D01*
X110320000Y-76600000D02*
X110320000Y-75400000D01*
X112080000Y-75400000D02*
X112080000Y-76600000D01*
X117820000Y-76100000D02*
X117820000Y-74900000D01*
X119580000Y-74900000D02*
X119580000Y-76100000D01*
X110320000Y-82300000D02*
X110320000Y-81100000D01*
X112080000Y-81100000D02*
X112080000Y-82300000D01*
D12*
X113153553Y-77550000D02*
G75*
G03X113153553Y-77550000I-353553J0D01*
G01*
X112050000Y-71550000D02*
X112050000Y-80300000D01*
X112050000Y-80300000D02*
X117300000Y-80300000D01*
X117300000Y-80300000D02*
X117550000Y-80300000D01*
X117550000Y-80300000D02*
X117550000Y-71550000D01*
X112050000Y-71550000D02*
X117550000Y-71550000D01*
X113153553Y-51550000D02*
G75*
G03X113153553Y-51550000I-353553J0D01*
G01*
X112050000Y-45550000D02*
X112050000Y-54300000D01*
X112050000Y-54300000D02*
X117300000Y-54300000D01*
X117300000Y-54300000D02*
X117550000Y-54300000D01*
X117550000Y-54300000D02*
X117550000Y-45550000D01*
X112050000Y-45550000D02*
X117550000Y-45550000D01*
D13*
X110320000Y-56300000D02*
X110320000Y-55100000D01*
X112080000Y-55100000D02*
X112080000Y-56300000D01*
X117820000Y-50100000D02*
X117820000Y-48900000D01*
X119580000Y-48900000D02*
X119580000Y-50100000D01*
X110320000Y-50600000D02*
X110320000Y-49400000D01*
X112080000Y-49400000D02*
X112080000Y-50600000D01*
X118000000Y-55800000D02*
X119400000Y-55800000D01*
X119400000Y-55800000D02*
X119400000Y-53000000D01*
X118000000Y-55800000D02*
X118000000Y-53000000D01*
D12*
X117950000Y-60450000D02*
X117650000Y-60050000D01*
X117650000Y-60050000D02*
X117950000Y-60050000D01*
X117950000Y-60450000D02*
X117950000Y-58550000D01*
X117950000Y-58550000D02*
X117950000Y-60050000D01*
X117950000Y-60050000D02*
X118250000Y-60050000D01*
X118250000Y-60050000D02*
X117950000Y-60450000D01*
X111550000Y-60550000D02*
X111550000Y-58350000D01*
X111550000Y-58350000D02*
X118350000Y-58350000D01*
X118350000Y-58350000D02*
X118350000Y-60550000D01*
X118350000Y-60550000D02*
X111550000Y-60550000D01*
X116700000Y-56500000D02*
X113700000Y-56500000D01*
X113700000Y-56500000D02*
X113700000Y-55100000D01*
X113700000Y-55100000D02*
X116700000Y-55100000D01*
X116700000Y-55100000D02*
X116700000Y-56500000D01*
X157200000Y-82500000D02*
X154200000Y-82500000D01*
X154200000Y-82500000D02*
X154200000Y-81100000D01*
X154200000Y-81100000D02*
X157200000Y-81100000D01*
X157200000Y-81100000D02*
X157200000Y-82500000D01*
X158450000Y-86450000D02*
X158150000Y-86050000D01*
X158150000Y-86050000D02*
X158450000Y-86050000D01*
X158450000Y-86450000D02*
X158450000Y-84550000D01*
X158450000Y-84550000D02*
X158450000Y-86050000D01*
X158450000Y-86050000D02*
X158750000Y-86050000D01*
X158750000Y-86050000D02*
X158450000Y-86450000D01*
X152050000Y-86550000D02*
X152050000Y-84350000D01*
X152050000Y-84350000D02*
X158850000Y-84350000D01*
X158850000Y-84350000D02*
X158850000Y-86550000D01*
X158850000Y-86550000D02*
X152050000Y-86550000D01*
D13*
X158500000Y-81800000D02*
X159900000Y-81800000D01*
X159900000Y-81800000D02*
X159900000Y-79000000D01*
X158500000Y-81800000D02*
X158500000Y-79000000D01*
X150820000Y-76600000D02*
X150820000Y-75400000D01*
X152580000Y-75400000D02*
X152580000Y-76600000D01*
X158320000Y-76100000D02*
X158320000Y-74900000D01*
X160080000Y-74900000D02*
X160080000Y-76100000D01*
X150820000Y-82300000D02*
X150820000Y-81100000D01*
X152580000Y-81100000D02*
X152580000Y-82300000D01*
D12*
X153653553Y-77550000D02*
G75*
G03X153653553Y-77550000I-353553J0D01*
G01*
X152550000Y-71550000D02*
X152550000Y-80300000D01*
X152550000Y-80300000D02*
X157800000Y-80300000D01*
X157800000Y-80300000D02*
X158050000Y-80300000D01*
X158050000Y-80300000D02*
X158050000Y-71550000D01*
X152550000Y-71550000D02*
X158050000Y-71550000D01*
X153653553Y-51550000D02*
G75*
G03X153653553Y-51550000I-353553J0D01*
G01*
X152550000Y-45550000D02*
X152550000Y-54300000D01*
X152550000Y-54300000D02*
X157800000Y-54300000D01*
X157800000Y-54300000D02*
X158050000Y-54300000D01*
X158050000Y-54300000D02*
X158050000Y-45550000D01*
X152550000Y-45550000D02*
X158050000Y-45550000D01*
D13*
X150820000Y-56300000D02*
X150820000Y-55100000D01*
X152580000Y-55100000D02*
X152580000Y-56300000D01*
X158320000Y-50100000D02*
X158320000Y-48900000D01*
X160080000Y-48900000D02*
X160080000Y-50100000D01*
X150820000Y-50600000D02*
X150820000Y-49400000D01*
X152580000Y-49400000D02*
X152580000Y-50600000D01*
X158500000Y-55800000D02*
X159900000Y-55800000D01*
X159900000Y-55800000D02*
X159900000Y-53000000D01*
X158500000Y-55800000D02*
X158500000Y-53000000D01*
D12*
X158450000Y-60450000D02*
X158150000Y-60050000D01*
X158150000Y-60050000D02*
X158450000Y-60050000D01*
X158450000Y-60450000D02*
X158450000Y-58550000D01*
X158450000Y-58550000D02*
X158450000Y-60050000D01*
X158450000Y-60050000D02*
X158750000Y-60050000D01*
X158750000Y-60050000D02*
X158450000Y-60450000D01*
X152050000Y-60550000D02*
X152050000Y-58350000D01*
X152050000Y-58350000D02*
X158850000Y-58350000D01*
X158850000Y-58350000D02*
X158850000Y-60550000D01*
X158850000Y-60550000D02*
X152050000Y-60550000D01*
X157200000Y-56500000D02*
X154200000Y-56500000D01*
X154200000Y-56500000D02*
X154200000Y-55100000D01*
X154200000Y-55100000D02*
X157200000Y-55100000D01*
X157200000Y-55100000D02*
X157200000Y-56500000D01*
X143700000Y-56500000D02*
X140700000Y-56500000D01*
X140700000Y-56500000D02*
X140700000Y-55100000D01*
X140700000Y-55100000D02*
X143700000Y-55100000D01*
X143700000Y-55100000D02*
X143700000Y-56500000D01*
X144950000Y-60450000D02*
X144650000Y-60050000D01*
X144650000Y-60050000D02*
X144950000Y-60050000D01*
X144950000Y-60450000D02*
X144950000Y-58550000D01*
X144950000Y-58550000D02*
X144950000Y-60050000D01*
X144950000Y-60050000D02*
X145250000Y-60050000D01*
X145250000Y-60050000D02*
X144950000Y-60450000D01*
X138550000Y-60550000D02*
X138550000Y-58350000D01*
X138550000Y-58350000D02*
X145350000Y-58350000D01*
X145350000Y-58350000D02*
X145350000Y-60550000D01*
X145350000Y-60550000D02*
X138550000Y-60550000D01*
D13*
X145000000Y-55800000D02*
X146400000Y-55800000D01*
X146400000Y-55800000D02*
X146400000Y-53000000D01*
X145000000Y-55800000D02*
X145000000Y-53000000D01*
X137320000Y-50600000D02*
X137320000Y-49400000D01*
X139080000Y-49400000D02*
X139080000Y-50600000D01*
X144820000Y-50100000D02*
X144820000Y-48900000D01*
X146580000Y-48900000D02*
X146580000Y-50100000D01*
X137320000Y-56300000D02*
X137320000Y-55100000D01*
X139080000Y-55100000D02*
X139080000Y-56300000D01*
D12*
X140153553Y-51550000D02*
G75*
G03X140153553Y-51550000I-353553J0D01*
G01*
X139050000Y-45550000D02*
X139050000Y-54300000D01*
X139050000Y-54300000D02*
X144300000Y-54300000D01*
X144300000Y-54300000D02*
X144550000Y-54300000D01*
X144550000Y-54300000D02*
X144550000Y-45550000D01*
X139050000Y-45550000D02*
X144550000Y-45550000D01*
X140153553Y-77550000D02*
G75*
G03X140153553Y-77550000I-353553J0D01*
G01*
X139050000Y-71550000D02*
X139050000Y-80300000D01*
X139050000Y-80300000D02*
X144300000Y-80300000D01*
X144300000Y-80300000D02*
X144550000Y-80300000D01*
X144550000Y-80300000D02*
X144550000Y-71550000D01*
X139050000Y-71550000D02*
X144550000Y-71550000D01*
D13*
X137320000Y-82300000D02*
X137320000Y-81100000D01*
X139080000Y-81100000D02*
X139080000Y-82300000D01*
X144820000Y-76100000D02*
X144820000Y-74900000D01*
X146580000Y-74900000D02*
X146580000Y-76100000D01*
X137320000Y-76600000D02*
X137320000Y-75400000D01*
X139080000Y-75400000D02*
X139080000Y-76600000D01*
X145000000Y-81800000D02*
X146400000Y-81800000D01*
X146400000Y-81800000D02*
X146400000Y-79000000D01*
X145000000Y-81800000D02*
X145000000Y-79000000D01*
D12*
X144950000Y-86450000D02*
X144650000Y-86050000D01*
X144650000Y-86050000D02*
X144950000Y-86050000D01*
X144950000Y-86450000D02*
X144950000Y-84550000D01*
X144950000Y-84550000D02*
X144950000Y-86050000D01*
X144950000Y-86050000D02*
X145250000Y-86050000D01*
X145250000Y-86050000D02*
X144950000Y-86450000D01*
X138550000Y-86550000D02*
X138550000Y-84350000D01*
X138550000Y-84350000D02*
X145350000Y-84350000D01*
X145350000Y-84350000D02*
X145350000Y-86550000D01*
X145350000Y-86550000D02*
X138550000Y-86550000D01*
X143700000Y-82500000D02*
X140700000Y-82500000D01*
X140700000Y-82500000D02*
X140700000Y-81100000D01*
X140700000Y-81100000D02*
X143700000Y-81100000D01*
X143700000Y-81100000D02*
X143700000Y-82500000D01*
X130200000Y-82500000D02*
X127200000Y-82500000D01*
X127200000Y-82500000D02*
X127200000Y-81100000D01*
X127200000Y-81100000D02*
X130200000Y-81100000D01*
X130200000Y-81100000D02*
X130200000Y-82500000D01*
X131450000Y-86450000D02*
X131150000Y-86050000D01*
X131150000Y-86050000D02*
X131450000Y-86050000D01*
X131450000Y-86450000D02*
X131450000Y-84550000D01*
X131450000Y-84550000D02*
X131450000Y-86050000D01*
X131450000Y-86050000D02*
X131750000Y-86050000D01*
X131750000Y-86050000D02*
X131450000Y-86450000D01*
X125050000Y-86550000D02*
X125050000Y-84350000D01*
X125050000Y-84350000D02*
X131850000Y-84350000D01*
X131850000Y-84350000D02*
X131850000Y-86550000D01*
X131850000Y-86550000D02*
X125050000Y-86550000D01*
D13*
X131500000Y-81800000D02*
X132900000Y-81800000D01*
X132900000Y-81800000D02*
X132900000Y-79000000D01*
X131500000Y-81800000D02*
X131500000Y-79000000D01*
X123820000Y-76600000D02*
X123820000Y-75400000D01*
X125580000Y-75400000D02*
X125580000Y-76600000D01*
X131320000Y-76100000D02*
X131320000Y-74900000D01*
X133080000Y-74900000D02*
X133080000Y-76100000D01*
X123820000Y-82300000D02*
X123820000Y-81100000D01*
X125580000Y-81100000D02*
X125580000Y-82300000D01*
D12*
X126653553Y-77550000D02*
G75*
G03X126653553Y-77550000I-353553J0D01*
G01*
X125550000Y-71550000D02*
X125550000Y-80300000D01*
X125550000Y-80300000D02*
X130800000Y-80300000D01*
X130800000Y-80300000D02*
X131050000Y-80300000D01*
X131050000Y-80300000D02*
X131050000Y-71550000D01*
X125550000Y-71550000D02*
X131050000Y-71550000D01*
X126653553Y-51550000D02*
G75*
G03X126653553Y-51550000I-353553J0D01*
G01*
X125550000Y-45550000D02*
X125550000Y-54300000D01*
X125550000Y-54300000D02*
X130800000Y-54300000D01*
X130800000Y-54300000D02*
X131050000Y-54300000D01*
X131050000Y-54300000D02*
X131050000Y-45550000D01*
X125550000Y-45550000D02*
X131050000Y-45550000D01*
D13*
X123820000Y-56300000D02*
X123820000Y-55100000D01*
X125580000Y-55100000D02*
X125580000Y-56300000D01*
X131320000Y-50100000D02*
X131320000Y-48900000D01*
X133080000Y-48900000D02*
X133080000Y-50100000D01*
X123820000Y-50600000D02*
X123820000Y-49400000D01*
X125580000Y-49400000D02*
X125580000Y-50600000D01*
X131500000Y-55800000D02*
X132900000Y-55800000D01*
X132900000Y-55800000D02*
X132900000Y-53000000D01*
X131500000Y-55800000D02*
X131500000Y-53000000D01*
D12*
X131450000Y-60450000D02*
X131150000Y-60050000D01*
X131150000Y-60050000D02*
X131450000Y-60050000D01*
X131450000Y-60450000D02*
X131450000Y-58550000D01*
X131450000Y-58550000D02*
X131450000Y-60050000D01*
X131450000Y-60050000D02*
X131750000Y-60050000D01*
X131750000Y-60050000D02*
X131450000Y-60450000D01*
X125050000Y-60550000D02*
X125050000Y-58350000D01*
X125050000Y-58350000D02*
X131850000Y-58350000D01*
X131850000Y-58350000D02*
X131850000Y-60550000D01*
X131850000Y-60550000D02*
X125050000Y-60550000D01*
X130200000Y-56500000D02*
X127200000Y-56500000D01*
X127200000Y-56500000D02*
X127200000Y-55100000D01*
X127200000Y-55100000D02*
X130200000Y-55100000D01*
X130200000Y-55100000D02*
X130200000Y-56500000D01*
X184200000Y-56500000D02*
X181200000Y-56500000D01*
X181200000Y-56500000D02*
X181200000Y-55100000D01*
X181200000Y-55100000D02*
X184200000Y-55100000D01*
X184200000Y-55100000D02*
X184200000Y-56500000D01*
X185450000Y-60450000D02*
X185150000Y-60050000D01*
X185150000Y-60050000D02*
X185450000Y-60050000D01*
X185450000Y-60450000D02*
X185450000Y-58550000D01*
X185450000Y-58550000D02*
X185450000Y-60050000D01*
X185450000Y-60050000D02*
X185750000Y-60050000D01*
X185750000Y-60050000D02*
X185450000Y-60450000D01*
X179050000Y-60550000D02*
X179050000Y-58350000D01*
X179050000Y-58350000D02*
X185850000Y-58350000D01*
X185850000Y-58350000D02*
X185850000Y-60550000D01*
X185850000Y-60550000D02*
X179050000Y-60550000D01*
D13*
X185500000Y-55800000D02*
X186900000Y-55800000D01*
X186900000Y-55800000D02*
X186900000Y-53000000D01*
X185500000Y-55800000D02*
X185500000Y-53000000D01*
X177820000Y-50600000D02*
X177820000Y-49400000D01*
X179580000Y-49400000D02*
X179580000Y-50600000D01*
X185320000Y-50100000D02*
X185320000Y-48900000D01*
X187080000Y-48900000D02*
X187080000Y-50100000D01*
X177820000Y-56300000D02*
X177820000Y-55100000D01*
X179580000Y-55100000D02*
X179580000Y-56300000D01*
D12*
X180653553Y-51550000D02*
G75*
G03X180653553Y-51550000I-353553J0D01*
G01*
X179550000Y-45550000D02*
X179550000Y-54300000D01*
X179550000Y-54300000D02*
X184800000Y-54300000D01*
X184800000Y-54300000D02*
X185050000Y-54300000D01*
X185050000Y-54300000D02*
X185050000Y-45550000D01*
X179550000Y-45550000D02*
X185050000Y-45550000D01*
X180653553Y-77550000D02*
G75*
G03X180653553Y-77550000I-353553J0D01*
G01*
X179550000Y-71550000D02*
X179550000Y-80300000D01*
X179550000Y-80300000D02*
X184800000Y-80300000D01*
X184800000Y-80300000D02*
X185050000Y-80300000D01*
X185050000Y-80300000D02*
X185050000Y-71550000D01*
X179550000Y-71550000D02*
X185050000Y-71550000D01*
D13*
X177820000Y-82300000D02*
X177820000Y-81100000D01*
X179580000Y-81100000D02*
X179580000Y-82300000D01*
X185320000Y-76100000D02*
X185320000Y-74900000D01*
X187080000Y-74900000D02*
X187080000Y-76100000D01*
X177820000Y-76600000D02*
X177820000Y-75400000D01*
X179580000Y-75400000D02*
X179580000Y-76600000D01*
X185500000Y-81800000D02*
X186900000Y-81800000D01*
X186900000Y-81800000D02*
X186900000Y-79000000D01*
X185500000Y-81800000D02*
X185500000Y-79000000D01*
D12*
X185450000Y-86450000D02*
X185150000Y-86050000D01*
X185150000Y-86050000D02*
X185450000Y-86050000D01*
X185450000Y-86450000D02*
X185450000Y-84550000D01*
X185450000Y-84550000D02*
X185450000Y-86050000D01*
X185450000Y-86050000D02*
X185750000Y-86050000D01*
X185750000Y-86050000D02*
X185450000Y-86450000D01*
X179050000Y-86550000D02*
X179050000Y-84350000D01*
X179050000Y-84350000D02*
X185850000Y-84350000D01*
X185850000Y-84350000D02*
X185850000Y-86550000D01*
X185850000Y-86550000D02*
X179050000Y-86550000D01*
X184200000Y-82500000D02*
X181200000Y-82500000D01*
X181200000Y-82500000D02*
X181200000Y-81100000D01*
X181200000Y-81100000D02*
X184200000Y-81100000D01*
X184200000Y-81100000D02*
X184200000Y-82500000D01*
X197700000Y-82500000D02*
X194700000Y-82500000D01*
X194700000Y-82500000D02*
X194700000Y-81100000D01*
X194700000Y-81100000D02*
X197700000Y-81100000D01*
X197700000Y-81100000D02*
X197700000Y-82500000D01*
X198950000Y-86450000D02*
X198650000Y-86050000D01*
X198650000Y-86050000D02*
X198950000Y-86050000D01*
X198950000Y-86450000D02*
X198950000Y-84550000D01*
X198950000Y-84550000D02*
X198950000Y-86050000D01*
X198950000Y-86050000D02*
X199250000Y-86050000D01*
X199250000Y-86050000D02*
X198950000Y-86450000D01*
X192550000Y-86550000D02*
X192550000Y-84350000D01*
X192550000Y-84350000D02*
X199350000Y-84350000D01*
X199350000Y-84350000D02*
X199350000Y-86550000D01*
X199350000Y-86550000D02*
X192550000Y-86550000D01*
D13*
X199000000Y-81800000D02*
X200400000Y-81800000D01*
X200400000Y-81800000D02*
X200400000Y-79000000D01*
X199000000Y-81800000D02*
X199000000Y-79000000D01*
X191320000Y-76600000D02*
X191320000Y-75400000D01*
X193080000Y-75400000D02*
X193080000Y-76600000D01*
X198820000Y-76100000D02*
X198820000Y-74900000D01*
X200580000Y-74900000D02*
X200580000Y-76100000D01*
X191320000Y-82300000D02*
X191320000Y-81100000D01*
X193080000Y-81100000D02*
X193080000Y-82300000D01*
D12*
X194153553Y-77550000D02*
G75*
G03X194153553Y-77550000I-353553J0D01*
G01*
X193050000Y-71550000D02*
X193050000Y-80300000D01*
X193050000Y-80300000D02*
X198300000Y-80300000D01*
X198300000Y-80300000D02*
X198550000Y-80300000D01*
X198550000Y-80300000D02*
X198550000Y-71550000D01*
X193050000Y-71550000D02*
X198550000Y-71550000D01*
X194153553Y-51550000D02*
G75*
G03X194153553Y-51550000I-353553J0D01*
G01*
X193050000Y-45550000D02*
X193050000Y-54300000D01*
X193050000Y-54300000D02*
X198300000Y-54300000D01*
X198300000Y-54300000D02*
X198550000Y-54300000D01*
X198550000Y-54300000D02*
X198550000Y-45550000D01*
X193050000Y-45550000D02*
X198550000Y-45550000D01*
D13*
X191320000Y-56300000D02*
X191320000Y-55100000D01*
X193080000Y-55100000D02*
X193080000Y-56300000D01*
X198820000Y-50100000D02*
X198820000Y-48900000D01*
X200580000Y-48900000D02*
X200580000Y-50100000D01*
X191320000Y-50600000D02*
X191320000Y-49400000D01*
X193080000Y-49400000D02*
X193080000Y-50600000D01*
X199000000Y-55800000D02*
X200400000Y-55800000D01*
X200400000Y-55800000D02*
X200400000Y-53000000D01*
X199000000Y-55800000D02*
X199000000Y-53000000D01*
D12*
X198950000Y-60450000D02*
X198650000Y-60050000D01*
X198650000Y-60050000D02*
X198950000Y-60050000D01*
X198950000Y-60450000D02*
X198950000Y-58550000D01*
X198950000Y-58550000D02*
X198950000Y-60050000D01*
X198950000Y-60050000D02*
X199250000Y-60050000D01*
X199250000Y-60050000D02*
X198950000Y-60450000D01*
X192550000Y-60550000D02*
X192550000Y-58350000D01*
X192550000Y-58350000D02*
X199350000Y-58350000D01*
X199350000Y-58350000D02*
X199350000Y-60550000D01*
X199350000Y-60550000D02*
X192550000Y-60550000D01*
X197700000Y-56500000D02*
X194700000Y-56500000D01*
X194700000Y-56500000D02*
X194700000Y-55100000D01*
X194700000Y-55100000D02*
X197700000Y-55100000D01*
X197700000Y-55100000D02*
X197700000Y-56500000D01*
X170700000Y-56500000D02*
X167700000Y-56500000D01*
X167700000Y-56500000D02*
X167700000Y-55100000D01*
X167700000Y-55100000D02*
X170700000Y-55100000D01*
X170700000Y-55100000D02*
X170700000Y-56500000D01*
X171950000Y-60450000D02*
X171650000Y-60050000D01*
X171650000Y-60050000D02*
X171950000Y-60050000D01*
X171950000Y-60450000D02*
X171950000Y-58550000D01*
X171950000Y-58550000D02*
X171950000Y-60050000D01*
X171950000Y-60050000D02*
X172250000Y-60050000D01*
X172250000Y-60050000D02*
X171950000Y-60450000D01*
X165550000Y-60550000D02*
X165550000Y-58350000D01*
X165550000Y-58350000D02*
X172350000Y-58350000D01*
X172350000Y-58350000D02*
X172350000Y-60550000D01*
X172350000Y-60550000D02*
X165550000Y-60550000D01*
D13*
X172000000Y-55800000D02*
X173400000Y-55800000D01*
X173400000Y-55800000D02*
X173400000Y-53000000D01*
X172000000Y-55800000D02*
X172000000Y-53000000D01*
X164320000Y-50600000D02*
X164320000Y-49400000D01*
X166080000Y-49400000D02*
X166080000Y-50600000D01*
X171820000Y-50100000D02*
X171820000Y-48900000D01*
X173580000Y-48900000D02*
X173580000Y-50100000D01*
X164320000Y-56300000D02*
X164320000Y-55100000D01*
X166080000Y-55100000D02*
X166080000Y-56300000D01*
D12*
X167153553Y-51550000D02*
G75*
G03X167153553Y-51550000I-353553J0D01*
G01*
X166050000Y-45550000D02*
X166050000Y-54300000D01*
X166050000Y-54300000D02*
X171300000Y-54300000D01*
X171300000Y-54300000D02*
X171550000Y-54300000D01*
X171550000Y-54300000D02*
X171550000Y-45550000D01*
X166050000Y-45550000D02*
X171550000Y-45550000D01*
X167153553Y-77550000D02*
G75*
G03X167153553Y-77550000I-353553J0D01*
G01*
X166050000Y-71550000D02*
X166050000Y-80300000D01*
X166050000Y-80300000D02*
X171300000Y-80300000D01*
X171300000Y-80300000D02*
X171550000Y-80300000D01*
X171550000Y-80300000D02*
X171550000Y-71550000D01*
X166050000Y-71550000D02*
X171550000Y-71550000D01*
D13*
X164320000Y-82300000D02*
X164320000Y-81100000D01*
X166080000Y-81100000D02*
X166080000Y-82300000D01*
X171820000Y-76100000D02*
X171820000Y-74900000D01*
X173580000Y-74900000D02*
X173580000Y-76100000D01*
X164320000Y-76600000D02*
X164320000Y-75400000D01*
X166080000Y-75400000D02*
X166080000Y-76600000D01*
X172000000Y-81800000D02*
X173400000Y-81800000D01*
X173400000Y-81800000D02*
X173400000Y-79000000D01*
X172000000Y-81800000D02*
X172000000Y-79000000D01*
D12*
X171950000Y-86450000D02*
X171650000Y-86050000D01*
X171650000Y-86050000D02*
X171950000Y-86050000D01*
X171950000Y-86450000D02*
X171950000Y-84550000D01*
X171950000Y-84550000D02*
X171950000Y-86050000D01*
X171950000Y-86050000D02*
X172250000Y-86050000D01*
X172250000Y-86050000D02*
X171950000Y-86450000D01*
X165550000Y-86550000D02*
X165550000Y-84350000D01*
X165550000Y-84350000D02*
X172350000Y-84350000D01*
X172350000Y-84350000D02*
X172350000Y-86550000D01*
X172350000Y-86550000D02*
X165550000Y-86550000D01*
X170700000Y-82500000D02*
X167700000Y-82500000D01*
X167700000Y-82500000D02*
X167700000Y-81100000D01*
X167700000Y-81100000D02*
X170700000Y-81100000D01*
X170700000Y-81100000D02*
X170700000Y-82500000D01*
X170700000Y-134500000D02*
X167700000Y-134500000D01*
X167700000Y-134500000D02*
X167700000Y-133100000D01*
X167700000Y-133100000D02*
X170700000Y-133100000D01*
X170700000Y-133100000D02*
X170700000Y-134500000D01*
X171950000Y-138450000D02*
X171650000Y-138050000D01*
X171650000Y-138050000D02*
X171950000Y-138050000D01*
X171950000Y-138450000D02*
X171950000Y-136550000D01*
X171950000Y-136550000D02*
X171950000Y-138050000D01*
X171950000Y-138050000D02*
X172250000Y-138050000D01*
X172250000Y-138050000D02*
X171950000Y-138450000D01*
X165550000Y-138550000D02*
X165550000Y-136350000D01*
X165550000Y-136350000D02*
X172350000Y-136350000D01*
X172350000Y-136350000D02*
X172350000Y-138550000D01*
X172350000Y-138550000D02*
X165550000Y-138550000D01*
D13*
X172000000Y-133800000D02*
X173400000Y-133800000D01*
X173400000Y-133800000D02*
X173400000Y-131000000D01*
X172000000Y-133800000D02*
X172000000Y-131000000D01*
X164320000Y-128600000D02*
X164320000Y-127400000D01*
X166080000Y-127400000D02*
X166080000Y-128600000D01*
X171820000Y-128100000D02*
X171820000Y-126900000D01*
X173580000Y-126900000D02*
X173580000Y-128100000D01*
X164320000Y-134300000D02*
X164320000Y-133100000D01*
X166080000Y-133100000D02*
X166080000Y-134300000D01*
D12*
X167153553Y-129550000D02*
G75*
G03X167153553Y-129550000I-353553J0D01*
G01*
X166050000Y-123550000D02*
X166050000Y-132300000D01*
X166050000Y-132300000D02*
X171300000Y-132300000D01*
X171300000Y-132300000D02*
X171550000Y-132300000D01*
X171550000Y-132300000D02*
X171550000Y-123550000D01*
X166050000Y-123550000D02*
X171550000Y-123550000D01*
X167153553Y-103550000D02*
G75*
G03X167153553Y-103550000I-353553J0D01*
G01*
X166050000Y-97550000D02*
X166050000Y-106300000D01*
X166050000Y-106300000D02*
X171300000Y-106300000D01*
X171300000Y-106300000D02*
X171550000Y-106300000D01*
X171550000Y-106300000D02*
X171550000Y-97550000D01*
X166050000Y-97550000D02*
X171550000Y-97550000D01*
D13*
X164320000Y-108300000D02*
X164320000Y-107100000D01*
X166080000Y-107100000D02*
X166080000Y-108300000D01*
X171820000Y-102100000D02*
X171820000Y-100900000D01*
X173580000Y-100900000D02*
X173580000Y-102100000D01*
X164320000Y-102600000D02*
X164320000Y-101400000D01*
X166080000Y-101400000D02*
X166080000Y-102600000D01*
X172000000Y-107800000D02*
X173400000Y-107800000D01*
X173400000Y-107800000D02*
X173400000Y-105000000D01*
X172000000Y-107800000D02*
X172000000Y-105000000D01*
D12*
X171950000Y-112450000D02*
X171650000Y-112050000D01*
X171650000Y-112050000D02*
X171950000Y-112050000D01*
X171950000Y-112450000D02*
X171950000Y-110550000D01*
X171950000Y-110550000D02*
X171950000Y-112050000D01*
X171950000Y-112050000D02*
X172250000Y-112050000D01*
X172250000Y-112050000D02*
X171950000Y-112450000D01*
X165550000Y-112550000D02*
X165550000Y-110350000D01*
X165550000Y-110350000D02*
X172350000Y-110350000D01*
X172350000Y-110350000D02*
X172350000Y-112550000D01*
X172350000Y-112550000D02*
X165550000Y-112550000D01*
X170700000Y-108500000D02*
X167700000Y-108500000D01*
X167700000Y-108500000D02*
X167700000Y-107100000D01*
X167700000Y-107100000D02*
X170700000Y-107100000D01*
X170700000Y-107100000D02*
X170700000Y-108500000D01*
X197700000Y-108500000D02*
X194700000Y-108500000D01*
X194700000Y-108500000D02*
X194700000Y-107100000D01*
X194700000Y-107100000D02*
X197700000Y-107100000D01*
X197700000Y-107100000D02*
X197700000Y-108500000D01*
X198950000Y-112450000D02*
X198650000Y-112050000D01*
X198650000Y-112050000D02*
X198950000Y-112050000D01*
X198950000Y-112450000D02*
X198950000Y-110550000D01*
X198950000Y-110550000D02*
X198950000Y-112050000D01*
X198950000Y-112050000D02*
X199250000Y-112050000D01*
X199250000Y-112050000D02*
X198950000Y-112450000D01*
X192550000Y-112550000D02*
X192550000Y-110350000D01*
X192550000Y-110350000D02*
X199350000Y-110350000D01*
X199350000Y-110350000D02*
X199350000Y-112550000D01*
X199350000Y-112550000D02*
X192550000Y-112550000D01*
D13*
X199000000Y-107800000D02*
X200400000Y-107800000D01*
X200400000Y-107800000D02*
X200400000Y-105000000D01*
X199000000Y-107800000D02*
X199000000Y-105000000D01*
X191320000Y-102600000D02*
X191320000Y-101400000D01*
X193080000Y-101400000D02*
X193080000Y-102600000D01*
X198820000Y-102100000D02*
X198820000Y-100900000D01*
X200580000Y-100900000D02*
X200580000Y-102100000D01*
X191320000Y-108300000D02*
X191320000Y-107100000D01*
X193080000Y-107100000D02*
X193080000Y-108300000D01*
D12*
X194153553Y-103550000D02*
G75*
G03X194153553Y-103550000I-353553J0D01*
G01*
X193050000Y-97550000D02*
X193050000Y-106300000D01*
X193050000Y-106300000D02*
X198300000Y-106300000D01*
X198300000Y-106300000D02*
X198550000Y-106300000D01*
X198550000Y-106300000D02*
X198550000Y-97550000D01*
X193050000Y-97550000D02*
X198550000Y-97550000D01*
X194153553Y-129550000D02*
G75*
G03X194153553Y-129550000I-353553J0D01*
G01*
X193050000Y-123550000D02*
X193050000Y-132300000D01*
X193050000Y-132300000D02*
X198300000Y-132300000D01*
X198300000Y-132300000D02*
X198550000Y-132300000D01*
X198550000Y-132300000D02*
X198550000Y-123550000D01*
X193050000Y-123550000D02*
X198550000Y-123550000D01*
D13*
X191320000Y-134300000D02*
X191320000Y-133100000D01*
X193080000Y-133100000D02*
X193080000Y-134300000D01*
X198820000Y-128100000D02*
X198820000Y-126900000D01*
X200580000Y-126900000D02*
X200580000Y-128100000D01*
X191320000Y-128600000D02*
X191320000Y-127400000D01*
X193080000Y-127400000D02*
X193080000Y-128600000D01*
X199000000Y-133800000D02*
X200400000Y-133800000D01*
X200400000Y-133800000D02*
X200400000Y-131000000D01*
X199000000Y-133800000D02*
X199000000Y-131000000D01*
D12*
X198950000Y-138450000D02*
X198650000Y-138050000D01*
X198650000Y-138050000D02*
X198950000Y-138050000D01*
X198950000Y-138450000D02*
X198950000Y-136550000D01*
X198950000Y-136550000D02*
X198950000Y-138050000D01*
X198950000Y-138050000D02*
X199250000Y-138050000D01*
X199250000Y-138050000D02*
X198950000Y-138450000D01*
X192550000Y-138550000D02*
X192550000Y-136350000D01*
X192550000Y-136350000D02*
X199350000Y-136350000D01*
X199350000Y-136350000D02*
X199350000Y-138550000D01*
X199350000Y-138550000D02*
X192550000Y-138550000D01*
X197700000Y-134500000D02*
X194700000Y-134500000D01*
X194700000Y-134500000D02*
X194700000Y-133100000D01*
X194700000Y-133100000D02*
X197700000Y-133100000D01*
X197700000Y-133100000D02*
X197700000Y-134500000D01*
X184200000Y-134500000D02*
X181200000Y-134500000D01*
X181200000Y-134500000D02*
X181200000Y-133100000D01*
X181200000Y-133100000D02*
X184200000Y-133100000D01*
X184200000Y-133100000D02*
X184200000Y-134500000D01*
X185450000Y-138450000D02*
X185150000Y-138050000D01*
X185150000Y-138050000D02*
X185450000Y-138050000D01*
X185450000Y-138450000D02*
X185450000Y-136550000D01*
X185450000Y-136550000D02*
X185450000Y-138050000D01*
X185450000Y-138050000D02*
X185750000Y-138050000D01*
X185750000Y-138050000D02*
X185450000Y-138450000D01*
X179050000Y-138550000D02*
X179050000Y-136350000D01*
X179050000Y-136350000D02*
X185850000Y-136350000D01*
X185850000Y-136350000D02*
X185850000Y-138550000D01*
X185850000Y-138550000D02*
X179050000Y-138550000D01*
D13*
X185500000Y-133800000D02*
X186900000Y-133800000D01*
X186900000Y-133800000D02*
X186900000Y-131000000D01*
X185500000Y-133800000D02*
X185500000Y-131000000D01*
X177820000Y-128600000D02*
X177820000Y-127400000D01*
X179580000Y-127400000D02*
X179580000Y-128600000D01*
X185320000Y-128100000D02*
X185320000Y-126900000D01*
X187080000Y-126900000D02*
X187080000Y-128100000D01*
X177820000Y-134300000D02*
X177820000Y-133100000D01*
X179580000Y-133100000D02*
X179580000Y-134300000D01*
D12*
X180653553Y-129550000D02*
G75*
G03X180653553Y-129550000I-353553J0D01*
G01*
X179550000Y-123550000D02*
X179550000Y-132300000D01*
X179550000Y-132300000D02*
X184800000Y-132300000D01*
X184800000Y-132300000D02*
X185050000Y-132300000D01*
X185050000Y-132300000D02*
X185050000Y-123550000D01*
X179550000Y-123550000D02*
X185050000Y-123550000D01*
X180653553Y-103550000D02*
G75*
G03X180653553Y-103550000I-353553J0D01*
G01*
X179550000Y-97550000D02*
X179550000Y-106300000D01*
X179550000Y-106300000D02*
X184800000Y-106300000D01*
X184800000Y-106300000D02*
X185050000Y-106300000D01*
X185050000Y-106300000D02*
X185050000Y-97550000D01*
X179550000Y-97550000D02*
X185050000Y-97550000D01*
D13*
X177820000Y-108300000D02*
X177820000Y-107100000D01*
X179580000Y-107100000D02*
X179580000Y-108300000D01*
X185320000Y-102100000D02*
X185320000Y-100900000D01*
X187080000Y-100900000D02*
X187080000Y-102100000D01*
X177820000Y-102600000D02*
X177820000Y-101400000D01*
X179580000Y-101400000D02*
X179580000Y-102600000D01*
X185500000Y-107800000D02*
X186900000Y-107800000D01*
X186900000Y-107800000D02*
X186900000Y-105000000D01*
X185500000Y-107800000D02*
X185500000Y-105000000D01*
D12*
X185450000Y-112450000D02*
X185150000Y-112050000D01*
X185150000Y-112050000D02*
X185450000Y-112050000D01*
X185450000Y-112450000D02*
X185450000Y-110550000D01*
X185450000Y-110550000D02*
X185450000Y-112050000D01*
X185450000Y-112050000D02*
X185750000Y-112050000D01*
X185750000Y-112050000D02*
X185450000Y-112450000D01*
X179050000Y-112550000D02*
X179050000Y-110350000D01*
X179050000Y-110350000D02*
X185850000Y-110350000D01*
X185850000Y-110350000D02*
X185850000Y-112550000D01*
X185850000Y-112550000D02*
X179050000Y-112550000D01*
X184200000Y-108500000D02*
X181200000Y-108500000D01*
X181200000Y-108500000D02*
X181200000Y-107100000D01*
X181200000Y-107100000D02*
X184200000Y-107100000D01*
X184200000Y-107100000D02*
X184200000Y-108500000D01*
X130200000Y-108500000D02*
X127200000Y-108500000D01*
X127200000Y-108500000D02*
X127200000Y-107100000D01*
X127200000Y-107100000D02*
X130200000Y-107100000D01*
X130200000Y-107100000D02*
X130200000Y-108500000D01*
X131450000Y-112450000D02*
X131150000Y-112050000D01*
X131150000Y-112050000D02*
X131450000Y-112050000D01*
X131450000Y-112450000D02*
X131450000Y-110550000D01*
X131450000Y-110550000D02*
X131450000Y-112050000D01*
X131450000Y-112050000D02*
X131750000Y-112050000D01*
X131750000Y-112050000D02*
X131450000Y-112450000D01*
X125050000Y-112550000D02*
X125050000Y-110350000D01*
X125050000Y-110350000D02*
X131850000Y-110350000D01*
X131850000Y-110350000D02*
X131850000Y-112550000D01*
X131850000Y-112550000D02*
X125050000Y-112550000D01*
D13*
X131500000Y-107800000D02*
X132900000Y-107800000D01*
X132900000Y-107800000D02*
X132900000Y-105000000D01*
X131500000Y-107800000D02*
X131500000Y-105000000D01*
X123820000Y-102600000D02*
X123820000Y-101400000D01*
X125580000Y-101400000D02*
X125580000Y-102600000D01*
X131320000Y-102100000D02*
X131320000Y-100900000D01*
X133080000Y-100900000D02*
X133080000Y-102100000D01*
X123820000Y-108300000D02*
X123820000Y-107100000D01*
X125580000Y-107100000D02*
X125580000Y-108300000D01*
D12*
X126653553Y-103550000D02*
G75*
G03X126653553Y-103550000I-353553J0D01*
G01*
X125550000Y-97550000D02*
X125550000Y-106300000D01*
X125550000Y-106300000D02*
X130800000Y-106300000D01*
X130800000Y-106300000D02*
X131050000Y-106300000D01*
X131050000Y-106300000D02*
X131050000Y-97550000D01*
X125550000Y-97550000D02*
X131050000Y-97550000D01*
X126653553Y-129550000D02*
G75*
G03X126653553Y-129550000I-353553J0D01*
G01*
X125550000Y-123550000D02*
X125550000Y-132300000D01*
X125550000Y-132300000D02*
X130800000Y-132300000D01*
X130800000Y-132300000D02*
X131050000Y-132300000D01*
X131050000Y-132300000D02*
X131050000Y-123550000D01*
X125550000Y-123550000D02*
X131050000Y-123550000D01*
D13*
X123820000Y-134300000D02*
X123820000Y-133100000D01*
X125580000Y-133100000D02*
X125580000Y-134300000D01*
X131320000Y-128100000D02*
X131320000Y-126900000D01*
X133080000Y-126900000D02*
X133080000Y-128100000D01*
X123820000Y-128600000D02*
X123820000Y-127400000D01*
X125580000Y-127400000D02*
X125580000Y-128600000D01*
X131500000Y-133800000D02*
X132900000Y-133800000D01*
X132900000Y-133800000D02*
X132900000Y-131000000D01*
X131500000Y-133800000D02*
X131500000Y-131000000D01*
D12*
X131450000Y-138450000D02*
X131150000Y-138050000D01*
X131150000Y-138050000D02*
X131450000Y-138050000D01*
X131450000Y-138450000D02*
X131450000Y-136550000D01*
X131450000Y-136550000D02*
X131450000Y-138050000D01*
X131450000Y-138050000D02*
X131750000Y-138050000D01*
X131750000Y-138050000D02*
X131450000Y-138450000D01*
X125050000Y-138550000D02*
X125050000Y-136350000D01*
X125050000Y-136350000D02*
X131850000Y-136350000D01*
X131850000Y-136350000D02*
X131850000Y-138550000D01*
X131850000Y-138550000D02*
X125050000Y-138550000D01*
X130200000Y-134500000D02*
X127200000Y-134500000D01*
X127200000Y-134500000D02*
X127200000Y-133100000D01*
X127200000Y-133100000D02*
X130200000Y-133100000D01*
X130200000Y-133100000D02*
X130200000Y-134500000D01*
X143700000Y-134500000D02*
X140700000Y-134500000D01*
X140700000Y-134500000D02*
X140700000Y-133100000D01*
X140700000Y-133100000D02*
X143700000Y-133100000D01*
X143700000Y-133100000D02*
X143700000Y-134500000D01*
X144950000Y-138450000D02*
X144650000Y-138050000D01*
X144650000Y-138050000D02*
X144950000Y-138050000D01*
X144950000Y-138450000D02*
X144950000Y-136550000D01*
X144950000Y-136550000D02*
X144950000Y-138050000D01*
X144950000Y-138050000D02*
X145250000Y-138050000D01*
X145250000Y-138050000D02*
X144950000Y-138450000D01*
X138550000Y-138550000D02*
X138550000Y-136350000D01*
X138550000Y-136350000D02*
X145350000Y-136350000D01*
X145350000Y-136350000D02*
X145350000Y-138550000D01*
X145350000Y-138550000D02*
X138550000Y-138550000D01*
D13*
X145000000Y-133800000D02*
X146400000Y-133800000D01*
X146400000Y-133800000D02*
X146400000Y-131000000D01*
X145000000Y-133800000D02*
X145000000Y-131000000D01*
X137320000Y-128600000D02*
X137320000Y-127400000D01*
X139080000Y-127400000D02*
X139080000Y-128600000D01*
X144820000Y-128100000D02*
X144820000Y-126900000D01*
X146580000Y-126900000D02*
X146580000Y-128100000D01*
X137320000Y-134300000D02*
X137320000Y-133100000D01*
X139080000Y-133100000D02*
X139080000Y-134300000D01*
D12*
X140153553Y-129550000D02*
G75*
G03X140153553Y-129550000I-353553J0D01*
G01*
X139050000Y-123550000D02*
X139050000Y-132300000D01*
X139050000Y-132300000D02*
X144300000Y-132300000D01*
X144300000Y-132300000D02*
X144550000Y-132300000D01*
X144550000Y-132300000D02*
X144550000Y-123550000D01*
X139050000Y-123550000D02*
X144550000Y-123550000D01*
X140153553Y-103550000D02*
G75*
G03X140153553Y-103550000I-353553J0D01*
G01*
X139050000Y-97550000D02*
X139050000Y-106300000D01*
X139050000Y-106300000D02*
X144300000Y-106300000D01*
X144300000Y-106300000D02*
X144550000Y-106300000D01*
X144550000Y-106300000D02*
X144550000Y-97550000D01*
X139050000Y-97550000D02*
X144550000Y-97550000D01*
D13*
X137320000Y-108300000D02*
X137320000Y-107100000D01*
X139080000Y-107100000D02*
X139080000Y-108300000D01*
X144820000Y-102100000D02*
X144820000Y-100900000D01*
X146580000Y-100900000D02*
X146580000Y-102100000D01*
X137320000Y-102600000D02*
X137320000Y-101400000D01*
X139080000Y-101400000D02*
X139080000Y-102600000D01*
X145000000Y-107800000D02*
X146400000Y-107800000D01*
X146400000Y-107800000D02*
X146400000Y-105000000D01*
X145000000Y-107800000D02*
X145000000Y-105000000D01*
D12*
X144950000Y-112450000D02*
X144650000Y-112050000D01*
X144650000Y-112050000D02*
X144950000Y-112050000D01*
X144950000Y-112450000D02*
X144950000Y-110550000D01*
X144950000Y-110550000D02*
X144950000Y-112050000D01*
X144950000Y-112050000D02*
X145250000Y-112050000D01*
X145250000Y-112050000D02*
X144950000Y-112450000D01*
X138550000Y-112550000D02*
X138550000Y-110350000D01*
X138550000Y-110350000D02*
X145350000Y-110350000D01*
X145350000Y-110350000D02*
X145350000Y-112550000D01*
X145350000Y-112550000D02*
X138550000Y-112550000D01*
X143700000Y-108500000D02*
X140700000Y-108500000D01*
X140700000Y-108500000D02*
X140700000Y-107100000D01*
X140700000Y-107100000D02*
X143700000Y-107100000D01*
X143700000Y-107100000D02*
X143700000Y-108500000D01*
X157200000Y-108500000D02*
X154200000Y-108500000D01*
X154200000Y-108500000D02*
X154200000Y-107100000D01*
X154200000Y-107100000D02*
X157200000Y-107100000D01*
X157200000Y-107100000D02*
X157200000Y-108500000D01*
X158450000Y-112450000D02*
X158150000Y-112050000D01*
X158150000Y-112050000D02*
X158450000Y-112050000D01*
X158450000Y-112450000D02*
X158450000Y-110550000D01*
X158450000Y-110550000D02*
X158450000Y-112050000D01*
X158450000Y-112050000D02*
X158750000Y-112050000D01*
X158750000Y-112050000D02*
X158450000Y-112450000D01*
X152050000Y-112550000D02*
X152050000Y-110350000D01*
X152050000Y-110350000D02*
X158850000Y-110350000D01*
X158850000Y-110350000D02*
X158850000Y-112550000D01*
X158850000Y-112550000D02*
X152050000Y-112550000D01*
D13*
X158500000Y-107800000D02*
X159900000Y-107800000D01*
X159900000Y-107800000D02*
X159900000Y-105000000D01*
X158500000Y-107800000D02*
X158500000Y-105000000D01*
X150820000Y-102600000D02*
X150820000Y-101400000D01*
X152580000Y-101400000D02*
X152580000Y-102600000D01*
X158320000Y-102100000D02*
X158320000Y-100900000D01*
X160080000Y-100900000D02*
X160080000Y-102100000D01*
X150820000Y-108300000D02*
X150820000Y-107100000D01*
X152580000Y-107100000D02*
X152580000Y-108300000D01*
D12*
X153653553Y-103550000D02*
G75*
G03X153653553Y-103550000I-353553J0D01*
G01*
X152550000Y-97550000D02*
X152550000Y-106300000D01*
X152550000Y-106300000D02*
X157800000Y-106300000D01*
X157800000Y-106300000D02*
X158050000Y-106300000D01*
X158050000Y-106300000D02*
X158050000Y-97550000D01*
X152550000Y-97550000D02*
X158050000Y-97550000D01*
X153653553Y-129550000D02*
G75*
G03X153653553Y-129550000I-353553J0D01*
G01*
X152550000Y-123550000D02*
X152550000Y-132300000D01*
X152550000Y-132300000D02*
X157800000Y-132300000D01*
X157800000Y-132300000D02*
X158050000Y-132300000D01*
X158050000Y-132300000D02*
X158050000Y-123550000D01*
X152550000Y-123550000D02*
X158050000Y-123550000D01*
D13*
X150820000Y-134300000D02*
X150820000Y-133100000D01*
X152580000Y-133100000D02*
X152580000Y-134300000D01*
X158320000Y-128100000D02*
X158320000Y-126900000D01*
X160080000Y-126900000D02*
X160080000Y-128100000D01*
X150820000Y-128600000D02*
X150820000Y-127400000D01*
X152580000Y-127400000D02*
X152580000Y-128600000D01*
X158500000Y-133800000D02*
X159900000Y-133800000D01*
X159900000Y-133800000D02*
X159900000Y-131000000D01*
X158500000Y-133800000D02*
X158500000Y-131000000D01*
D12*
X158450000Y-138450000D02*
X158150000Y-138050000D01*
X158150000Y-138050000D02*
X158450000Y-138050000D01*
X158450000Y-138450000D02*
X158450000Y-136550000D01*
X158450000Y-136550000D02*
X158450000Y-138050000D01*
X158450000Y-138050000D02*
X158750000Y-138050000D01*
X158750000Y-138050000D02*
X158450000Y-138450000D01*
X152050000Y-138550000D02*
X152050000Y-136350000D01*
X152050000Y-136350000D02*
X158850000Y-136350000D01*
X158850000Y-136350000D02*
X158850000Y-138550000D01*
X158850000Y-138550000D02*
X152050000Y-138550000D01*
X157200000Y-134500000D02*
X154200000Y-134500000D01*
X154200000Y-134500000D02*
X154200000Y-133100000D01*
X154200000Y-133100000D02*
X157200000Y-133100000D01*
X157200000Y-133100000D02*
X157200000Y-134500000D01*
X116700000Y-108500000D02*
X113700000Y-108500000D01*
X113700000Y-108500000D02*
X113700000Y-107100000D01*
X113700000Y-107100000D02*
X116700000Y-107100000D01*
X116700000Y-107100000D02*
X116700000Y-108500000D01*
X117950000Y-112450000D02*
X117650000Y-112050000D01*
X117650000Y-112050000D02*
X117950000Y-112050000D01*
X117950000Y-112450000D02*
X117950000Y-110550000D01*
X117950000Y-110550000D02*
X117950000Y-112050000D01*
X117950000Y-112050000D02*
X118250000Y-112050000D01*
X118250000Y-112050000D02*
X117950000Y-112450000D01*
X111550000Y-112550000D02*
X111550000Y-110350000D01*
X111550000Y-110350000D02*
X118350000Y-110350000D01*
X118350000Y-110350000D02*
X118350000Y-112550000D01*
X118350000Y-112550000D02*
X111550000Y-112550000D01*
D13*
X118000000Y-107800000D02*
X119400000Y-107800000D01*
X119400000Y-107800000D02*
X119400000Y-105000000D01*
X118000000Y-107800000D02*
X118000000Y-105000000D01*
X110320000Y-102600000D02*
X110320000Y-101400000D01*
X112080000Y-101400000D02*
X112080000Y-102600000D01*
X117820000Y-102100000D02*
X117820000Y-100900000D01*
X119580000Y-100900000D02*
X119580000Y-102100000D01*
X110320000Y-108300000D02*
X110320000Y-107100000D01*
X112080000Y-107100000D02*
X112080000Y-108300000D01*
D12*
X113153553Y-103550000D02*
G75*
G03X113153553Y-103550000I-353553J0D01*
G01*
X112050000Y-97550000D02*
X112050000Y-106300000D01*
X112050000Y-106300000D02*
X117300000Y-106300000D01*
X117300000Y-106300000D02*
X117550000Y-106300000D01*
X117550000Y-106300000D02*
X117550000Y-97550000D01*
X112050000Y-97550000D02*
X117550000Y-97550000D01*
X113153553Y-129550000D02*
G75*
G03X113153553Y-129550000I-353553J0D01*
G01*
X112050000Y-123550000D02*
X112050000Y-132300000D01*
X112050000Y-132300000D02*
X117300000Y-132300000D01*
X117300000Y-132300000D02*
X117550000Y-132300000D01*
X117550000Y-132300000D02*
X117550000Y-123550000D01*
X112050000Y-123550000D02*
X117550000Y-123550000D01*
D13*
X110320000Y-134300000D02*
X110320000Y-133100000D01*
X112080000Y-133100000D02*
X112080000Y-134300000D01*
X117820000Y-128100000D02*
X117820000Y-126900000D01*
X119580000Y-126900000D02*
X119580000Y-128100000D01*
X110320000Y-128600000D02*
X110320000Y-127400000D01*
X112080000Y-127400000D02*
X112080000Y-128600000D01*
X118000000Y-133800000D02*
X119400000Y-133800000D01*
X119400000Y-133800000D02*
X119400000Y-131000000D01*
X118000000Y-133800000D02*
X118000000Y-131000000D01*
D12*
X117950000Y-138450000D02*
X117650000Y-138050000D01*
X117650000Y-138050000D02*
X117950000Y-138050000D01*
X117950000Y-138450000D02*
X117950000Y-136550000D01*
X117950000Y-136550000D02*
X117950000Y-138050000D01*
X117950000Y-138050000D02*
X118250000Y-138050000D01*
X118250000Y-138050000D02*
X117950000Y-138450000D01*
X111550000Y-138550000D02*
X111550000Y-136350000D01*
X111550000Y-136350000D02*
X118350000Y-136350000D01*
X118350000Y-136350000D02*
X118350000Y-138550000D01*
X118350000Y-138550000D02*
X111550000Y-138550000D01*
X116700000Y-134500000D02*
X113700000Y-134500000D01*
X113700000Y-134500000D02*
X113700000Y-133100000D01*
X113700000Y-133100000D02*
X116700000Y-133100000D01*
X116700000Y-133100000D02*
X116700000Y-134500000D01*
X114228572Y-78842857D02*
X115028572Y-80042857D01*
X115028572Y-78842857D02*
X114228572Y-80042857D01*
X116114286Y-80042857D02*
X115428571Y-80042857D01*
X115771429Y-80042857D02*
X115771429Y-78842857D01*
X115657143Y-79014286D01*
X115542857Y-79128571D01*
X115428571Y-79185714D01*
X113985714Y-86942857D02*
X113985714Y-87914286D01*
X114042857Y-88028571D01*
X114100000Y-88085714D01*
X114214286Y-88142857D01*
X114442857Y-88142857D01*
X114557143Y-88085714D01*
X114614286Y-88028571D01*
X114671429Y-87914286D01*
X114671429Y-86942857D01*
X115185714Y-87057143D02*
X115242857Y-87000000D01*
X115357143Y-86942857D01*
X115642857Y-86942857D01*
X115757143Y-87000000D01*
X115814286Y-87057143D01*
X115871429Y-87171429D01*
X115871429Y-87285714D01*
X115814286Y-87457143D01*
X115128572Y-88142857D01*
X115871429Y-88142857D01*
X119152381Y-84338095D02*
X118152381Y-84338095D01*
X118152381Y-84100000D01*
X118200000Y-83957142D01*
X118295238Y-83861904D01*
X118390476Y-83814285D01*
X118580952Y-83766666D01*
X118723810Y-83766666D01*
X118914286Y-83814285D01*
X119009524Y-83861904D01*
X119104762Y-83957142D01*
X119152381Y-84100000D01*
X119152381Y-84338095D01*
X119152381Y-82814285D02*
X119152381Y-83385714D01*
X119152381Y-83100000D02*
X118152381Y-83100000D01*
X118295238Y-83195238D01*
X118390476Y-83290476D01*
X118438095Y-83385714D01*
X111752381Y-73466666D02*
X111276190Y-73800000D01*
X111752381Y-74038095D02*
X110752381Y-74038095D01*
X110752381Y-73657142D01*
X110800000Y-73561904D01*
X110847619Y-73514285D01*
X110942857Y-73466666D01*
X111085714Y-73466666D01*
X111180952Y-73514285D01*
X111228571Y-73561904D01*
X111276190Y-73657142D01*
X111276190Y-74038095D01*
X111085714Y-72609523D02*
X111752381Y-72609523D01*
X110704762Y-72847619D02*
X111419048Y-73085714D01*
X111419048Y-72466666D01*
X119252381Y-73266666D02*
X118776190Y-73600000D01*
X119252381Y-73838095D02*
X118252381Y-73838095D01*
X118252381Y-73457142D01*
X118300000Y-73361904D01*
X118347619Y-73314285D01*
X118442857Y-73266666D01*
X118585714Y-73266666D01*
X118680952Y-73314285D01*
X118728571Y-73361904D01*
X118776190Y-73457142D01*
X118776190Y-73838095D01*
X119252381Y-72314285D02*
X119252381Y-72885714D01*
X119252381Y-72600000D02*
X118252381Y-72600000D01*
X118395238Y-72695238D01*
X118490476Y-72790476D01*
X118538095Y-72885714D01*
X111457143Y-84366666D02*
X111504762Y-84414285D01*
X111552381Y-84557142D01*
X111552381Y-84652380D01*
X111504762Y-84795238D01*
X111409524Y-84890476D01*
X111314286Y-84938095D01*
X111123810Y-84985714D01*
X110980952Y-84985714D01*
X110790476Y-84938095D01*
X110695238Y-84890476D01*
X110600000Y-84795238D01*
X110552381Y-84652380D01*
X110552381Y-84557142D01*
X110600000Y-84414285D01*
X110647619Y-84366666D01*
X111552381Y-83414285D02*
X111552381Y-83985714D01*
X111552381Y-83700000D02*
X110552381Y-83700000D01*
X110695238Y-83795238D01*
X110790476Y-83890476D01*
X110838095Y-83985714D01*
X110237857Y-77714286D02*
X111209286Y-77714286D01*
X111323571Y-77657143D01*
X111380714Y-77600000D01*
X111437857Y-77485714D01*
X111437857Y-77257143D01*
X111380714Y-77142857D01*
X111323571Y-77085714D01*
X111209286Y-77028571D01*
X110237857Y-77028571D01*
X111437857Y-75828571D02*
X111437857Y-76514286D01*
X111437857Y-76171428D02*
X110237857Y-76171428D01*
X110409286Y-76285714D01*
X110523571Y-76400000D01*
X110580714Y-76514286D01*
X110237857Y-51714286D02*
X111209286Y-51714286D01*
X111323571Y-51657143D01*
X111380714Y-51600000D01*
X111437857Y-51485714D01*
X111437857Y-51257143D01*
X111380714Y-51142857D01*
X111323571Y-51085714D01*
X111209286Y-51028571D01*
X110237857Y-51028571D01*
X111437857Y-49828571D02*
X111437857Y-50514286D01*
X111437857Y-50171428D02*
X110237857Y-50171428D01*
X110409286Y-50285714D01*
X110523571Y-50400000D01*
X110580714Y-50514286D01*
X111457143Y-58366666D02*
X111504762Y-58414285D01*
X111552381Y-58557142D01*
X111552381Y-58652380D01*
X111504762Y-58795238D01*
X111409524Y-58890476D01*
X111314286Y-58938095D01*
X111123810Y-58985714D01*
X110980952Y-58985714D01*
X110790476Y-58938095D01*
X110695238Y-58890476D01*
X110600000Y-58795238D01*
X110552381Y-58652380D01*
X110552381Y-58557142D01*
X110600000Y-58414285D01*
X110647619Y-58366666D01*
X111552381Y-57414285D02*
X111552381Y-57985714D01*
X111552381Y-57700000D02*
X110552381Y-57700000D01*
X110695238Y-57795238D01*
X110790476Y-57890476D01*
X110838095Y-57985714D01*
X119252381Y-47266666D02*
X118776190Y-47600000D01*
X119252381Y-47838095D02*
X118252381Y-47838095D01*
X118252381Y-47457142D01*
X118300000Y-47361904D01*
X118347619Y-47314285D01*
X118442857Y-47266666D01*
X118585714Y-47266666D01*
X118680952Y-47314285D01*
X118728571Y-47361904D01*
X118776190Y-47457142D01*
X118776190Y-47838095D01*
X119252381Y-46314285D02*
X119252381Y-46885714D01*
X119252381Y-46600000D02*
X118252381Y-46600000D01*
X118395238Y-46695238D01*
X118490476Y-46790476D01*
X118538095Y-46885714D01*
X111752381Y-47466666D02*
X111276190Y-47800000D01*
X111752381Y-48038095D02*
X110752381Y-48038095D01*
X110752381Y-47657142D01*
X110800000Y-47561904D01*
X110847619Y-47514285D01*
X110942857Y-47466666D01*
X111085714Y-47466666D01*
X111180952Y-47514285D01*
X111228571Y-47561904D01*
X111276190Y-47657142D01*
X111276190Y-48038095D01*
X111085714Y-46609523D02*
X111752381Y-46609523D01*
X110704762Y-46847619D02*
X111419048Y-47085714D01*
X111419048Y-46466666D01*
X119152381Y-58338095D02*
X118152381Y-58338095D01*
X118152381Y-58100000D01*
X118200000Y-57957142D01*
X118295238Y-57861904D01*
X118390476Y-57814285D01*
X118580952Y-57766666D01*
X118723810Y-57766666D01*
X118914286Y-57814285D01*
X119009524Y-57861904D01*
X119104762Y-57957142D01*
X119152381Y-58100000D01*
X119152381Y-58338095D01*
X119152381Y-56814285D02*
X119152381Y-57385714D01*
X119152381Y-57100000D02*
X118152381Y-57100000D01*
X118295238Y-57195238D01*
X118390476Y-57290476D01*
X118438095Y-57385714D01*
X113985714Y-60942857D02*
X113985714Y-61914286D01*
X114042857Y-62028571D01*
X114100000Y-62085714D01*
X114214286Y-62142857D01*
X114442857Y-62142857D01*
X114557143Y-62085714D01*
X114614286Y-62028571D01*
X114671429Y-61914286D01*
X114671429Y-60942857D01*
X115185714Y-61057143D02*
X115242857Y-61000000D01*
X115357143Y-60942857D01*
X115642857Y-60942857D01*
X115757143Y-61000000D01*
X115814286Y-61057143D01*
X115871429Y-61171429D01*
X115871429Y-61285714D01*
X115814286Y-61457143D01*
X115128572Y-62142857D01*
X115871429Y-62142857D01*
X114228572Y-52842857D02*
X115028572Y-54042857D01*
X115028572Y-52842857D02*
X114228572Y-54042857D01*
X116114286Y-54042857D02*
X115428571Y-54042857D01*
X115771429Y-54042857D02*
X115771429Y-52842857D01*
X115657143Y-53014286D01*
X115542857Y-53128571D01*
X115428571Y-53185714D01*
X154728572Y-78842857D02*
X155528572Y-80042857D01*
X155528572Y-78842857D02*
X154728572Y-80042857D01*
X156614286Y-80042857D02*
X155928571Y-80042857D01*
X156271429Y-80042857D02*
X156271429Y-78842857D01*
X156157143Y-79014286D01*
X156042857Y-79128571D01*
X155928571Y-79185714D01*
X154485714Y-86942857D02*
X154485714Y-87914286D01*
X154542857Y-88028571D01*
X154600000Y-88085714D01*
X154714286Y-88142857D01*
X154942857Y-88142857D01*
X155057143Y-88085714D01*
X155114286Y-88028571D01*
X155171429Y-87914286D01*
X155171429Y-86942857D01*
X155685714Y-87057143D02*
X155742857Y-87000000D01*
X155857143Y-86942857D01*
X156142857Y-86942857D01*
X156257143Y-87000000D01*
X156314286Y-87057143D01*
X156371429Y-87171429D01*
X156371429Y-87285714D01*
X156314286Y-87457143D01*
X155628572Y-88142857D01*
X156371429Y-88142857D01*
X159652381Y-84338095D02*
X158652381Y-84338095D01*
X158652381Y-84100000D01*
X158700000Y-83957142D01*
X158795238Y-83861904D01*
X158890476Y-83814285D01*
X159080952Y-83766666D01*
X159223810Y-83766666D01*
X159414286Y-83814285D01*
X159509524Y-83861904D01*
X159604762Y-83957142D01*
X159652381Y-84100000D01*
X159652381Y-84338095D01*
X159652381Y-82814285D02*
X159652381Y-83385714D01*
X159652381Y-83100000D02*
X158652381Y-83100000D01*
X158795238Y-83195238D01*
X158890476Y-83290476D01*
X158938095Y-83385714D01*
X152252381Y-73466666D02*
X151776190Y-73800000D01*
X152252381Y-74038095D02*
X151252381Y-74038095D01*
X151252381Y-73657142D01*
X151300000Y-73561904D01*
X151347619Y-73514285D01*
X151442857Y-73466666D01*
X151585714Y-73466666D01*
X151680952Y-73514285D01*
X151728571Y-73561904D01*
X151776190Y-73657142D01*
X151776190Y-74038095D01*
X151585714Y-72609523D02*
X152252381Y-72609523D01*
X151204762Y-72847619D02*
X151919048Y-73085714D01*
X151919048Y-72466666D01*
X159752381Y-73266666D02*
X159276190Y-73600000D01*
X159752381Y-73838095D02*
X158752381Y-73838095D01*
X158752381Y-73457142D01*
X158800000Y-73361904D01*
X158847619Y-73314285D01*
X158942857Y-73266666D01*
X159085714Y-73266666D01*
X159180952Y-73314285D01*
X159228571Y-73361904D01*
X159276190Y-73457142D01*
X159276190Y-73838095D01*
X159752381Y-72314285D02*
X159752381Y-72885714D01*
X159752381Y-72600000D02*
X158752381Y-72600000D01*
X158895238Y-72695238D01*
X158990476Y-72790476D01*
X159038095Y-72885714D01*
X151957143Y-84366666D02*
X152004762Y-84414285D01*
X152052381Y-84557142D01*
X152052381Y-84652380D01*
X152004762Y-84795238D01*
X151909524Y-84890476D01*
X151814286Y-84938095D01*
X151623810Y-84985714D01*
X151480952Y-84985714D01*
X151290476Y-84938095D01*
X151195238Y-84890476D01*
X151100000Y-84795238D01*
X151052381Y-84652380D01*
X151052381Y-84557142D01*
X151100000Y-84414285D01*
X151147619Y-84366666D01*
X152052381Y-83414285D02*
X152052381Y-83985714D01*
X152052381Y-83700000D02*
X151052381Y-83700000D01*
X151195238Y-83795238D01*
X151290476Y-83890476D01*
X151338095Y-83985714D01*
X150737857Y-77714286D02*
X151709286Y-77714286D01*
X151823571Y-77657143D01*
X151880714Y-77600000D01*
X151937857Y-77485714D01*
X151937857Y-77257143D01*
X151880714Y-77142857D01*
X151823571Y-77085714D01*
X151709286Y-77028571D01*
X150737857Y-77028571D01*
X151937857Y-75828571D02*
X151937857Y-76514286D01*
X151937857Y-76171428D02*
X150737857Y-76171428D01*
X150909286Y-76285714D01*
X151023571Y-76400000D01*
X151080714Y-76514286D01*
X150737857Y-51714286D02*
X151709286Y-51714286D01*
X151823571Y-51657143D01*
X151880714Y-51600000D01*
X151937857Y-51485714D01*
X151937857Y-51257143D01*
X151880714Y-51142857D01*
X151823571Y-51085714D01*
X151709286Y-51028571D01*
X150737857Y-51028571D01*
X151937857Y-49828571D02*
X151937857Y-50514286D01*
X151937857Y-50171428D02*
X150737857Y-50171428D01*
X150909286Y-50285714D01*
X151023571Y-50400000D01*
X151080714Y-50514286D01*
X151957143Y-58366666D02*
X152004762Y-58414285D01*
X152052381Y-58557142D01*
X152052381Y-58652380D01*
X152004762Y-58795238D01*
X151909524Y-58890476D01*
X151814286Y-58938095D01*
X151623810Y-58985714D01*
X151480952Y-58985714D01*
X151290476Y-58938095D01*
X151195238Y-58890476D01*
X151100000Y-58795238D01*
X151052381Y-58652380D01*
X151052381Y-58557142D01*
X151100000Y-58414285D01*
X151147619Y-58366666D01*
X152052381Y-57414285D02*
X152052381Y-57985714D01*
X152052381Y-57700000D02*
X151052381Y-57700000D01*
X151195238Y-57795238D01*
X151290476Y-57890476D01*
X151338095Y-57985714D01*
X159752381Y-47266666D02*
X159276190Y-47600000D01*
X159752381Y-47838095D02*
X158752381Y-47838095D01*
X158752381Y-47457142D01*
X158800000Y-47361904D01*
X158847619Y-47314285D01*
X158942857Y-47266666D01*
X159085714Y-47266666D01*
X159180952Y-47314285D01*
X159228571Y-47361904D01*
X159276190Y-47457142D01*
X159276190Y-47838095D01*
X159752381Y-46314285D02*
X159752381Y-46885714D01*
X159752381Y-46600000D02*
X158752381Y-46600000D01*
X158895238Y-46695238D01*
X158990476Y-46790476D01*
X159038095Y-46885714D01*
X152252381Y-47466666D02*
X151776190Y-47800000D01*
X152252381Y-48038095D02*
X151252381Y-48038095D01*
X151252381Y-47657142D01*
X151300000Y-47561904D01*
X151347619Y-47514285D01*
X151442857Y-47466666D01*
X151585714Y-47466666D01*
X151680952Y-47514285D01*
X151728571Y-47561904D01*
X151776190Y-47657142D01*
X151776190Y-48038095D01*
X151585714Y-46609523D02*
X152252381Y-46609523D01*
X151204762Y-46847619D02*
X151919048Y-47085714D01*
X151919048Y-46466666D01*
X159652381Y-58338095D02*
X158652381Y-58338095D01*
X158652381Y-58100000D01*
X158700000Y-57957142D01*
X158795238Y-57861904D01*
X158890476Y-57814285D01*
X159080952Y-57766666D01*
X159223810Y-57766666D01*
X159414286Y-57814285D01*
X159509524Y-57861904D01*
X159604762Y-57957142D01*
X159652381Y-58100000D01*
X159652381Y-58338095D01*
X159652381Y-56814285D02*
X159652381Y-57385714D01*
X159652381Y-57100000D02*
X158652381Y-57100000D01*
X158795238Y-57195238D01*
X158890476Y-57290476D01*
X158938095Y-57385714D01*
X154485714Y-60942857D02*
X154485714Y-61914286D01*
X154542857Y-62028571D01*
X154600000Y-62085714D01*
X154714286Y-62142857D01*
X154942857Y-62142857D01*
X155057143Y-62085714D01*
X155114286Y-62028571D01*
X155171429Y-61914286D01*
X155171429Y-60942857D01*
X155685714Y-61057143D02*
X155742857Y-61000000D01*
X155857143Y-60942857D01*
X156142857Y-60942857D01*
X156257143Y-61000000D01*
X156314286Y-61057143D01*
X156371429Y-61171429D01*
X156371429Y-61285714D01*
X156314286Y-61457143D01*
X155628572Y-62142857D01*
X156371429Y-62142857D01*
X154728572Y-52842857D02*
X155528572Y-54042857D01*
X155528572Y-52842857D02*
X154728572Y-54042857D01*
X156614286Y-54042857D02*
X155928571Y-54042857D01*
X156271429Y-54042857D02*
X156271429Y-52842857D01*
X156157143Y-53014286D01*
X156042857Y-53128571D01*
X155928571Y-53185714D01*
X141228572Y-52842857D02*
X142028572Y-54042857D01*
X142028572Y-52842857D02*
X141228572Y-54042857D01*
X143114286Y-54042857D02*
X142428571Y-54042857D01*
X142771429Y-54042857D02*
X142771429Y-52842857D01*
X142657143Y-53014286D01*
X142542857Y-53128571D01*
X142428571Y-53185714D01*
X140985714Y-60942857D02*
X140985714Y-61914286D01*
X141042857Y-62028571D01*
X141100000Y-62085714D01*
X141214286Y-62142857D01*
X141442857Y-62142857D01*
X141557143Y-62085714D01*
X141614286Y-62028571D01*
X141671429Y-61914286D01*
X141671429Y-60942857D01*
X142185714Y-61057143D02*
X142242857Y-61000000D01*
X142357143Y-60942857D01*
X142642857Y-60942857D01*
X142757143Y-61000000D01*
X142814286Y-61057143D01*
X142871429Y-61171429D01*
X142871429Y-61285714D01*
X142814286Y-61457143D01*
X142128572Y-62142857D01*
X142871429Y-62142857D01*
X146152381Y-58338095D02*
X145152381Y-58338095D01*
X145152381Y-58100000D01*
X145200000Y-57957142D01*
X145295238Y-57861904D01*
X145390476Y-57814285D01*
X145580952Y-57766666D01*
X145723810Y-57766666D01*
X145914286Y-57814285D01*
X146009524Y-57861904D01*
X146104762Y-57957142D01*
X146152381Y-58100000D01*
X146152381Y-58338095D01*
X146152381Y-56814285D02*
X146152381Y-57385714D01*
X146152381Y-57100000D02*
X145152381Y-57100000D01*
X145295238Y-57195238D01*
X145390476Y-57290476D01*
X145438095Y-57385714D01*
X138752381Y-47466666D02*
X138276190Y-47800000D01*
X138752381Y-48038095D02*
X137752381Y-48038095D01*
X137752381Y-47657142D01*
X137800000Y-47561904D01*
X137847619Y-47514285D01*
X137942857Y-47466666D01*
X138085714Y-47466666D01*
X138180952Y-47514285D01*
X138228571Y-47561904D01*
X138276190Y-47657142D01*
X138276190Y-48038095D01*
X138085714Y-46609523D02*
X138752381Y-46609523D01*
X137704762Y-46847619D02*
X138419048Y-47085714D01*
X138419048Y-46466666D01*
X146252381Y-47266666D02*
X145776190Y-47600000D01*
X146252381Y-47838095D02*
X145252381Y-47838095D01*
X145252381Y-47457142D01*
X145300000Y-47361904D01*
X145347619Y-47314285D01*
X145442857Y-47266666D01*
X145585714Y-47266666D01*
X145680952Y-47314285D01*
X145728571Y-47361904D01*
X145776190Y-47457142D01*
X145776190Y-47838095D01*
X146252381Y-46314285D02*
X146252381Y-46885714D01*
X146252381Y-46600000D02*
X145252381Y-46600000D01*
X145395238Y-46695238D01*
X145490476Y-46790476D01*
X145538095Y-46885714D01*
X138457143Y-58366666D02*
X138504762Y-58414285D01*
X138552381Y-58557142D01*
X138552381Y-58652380D01*
X138504762Y-58795238D01*
X138409524Y-58890476D01*
X138314286Y-58938095D01*
X138123810Y-58985714D01*
X137980952Y-58985714D01*
X137790476Y-58938095D01*
X137695238Y-58890476D01*
X137600000Y-58795238D01*
X137552381Y-58652380D01*
X137552381Y-58557142D01*
X137600000Y-58414285D01*
X137647619Y-58366666D01*
X138552381Y-57414285D02*
X138552381Y-57985714D01*
X138552381Y-57700000D02*
X137552381Y-57700000D01*
X137695238Y-57795238D01*
X137790476Y-57890476D01*
X137838095Y-57985714D01*
X137237857Y-51714286D02*
X138209286Y-51714286D01*
X138323571Y-51657143D01*
X138380714Y-51600000D01*
X138437857Y-51485714D01*
X138437857Y-51257143D01*
X138380714Y-51142857D01*
X138323571Y-51085714D01*
X138209286Y-51028571D01*
X137237857Y-51028571D01*
X138437857Y-49828571D02*
X138437857Y-50514286D01*
X138437857Y-50171428D02*
X137237857Y-50171428D01*
X137409286Y-50285714D01*
X137523571Y-50400000D01*
X137580714Y-50514286D01*
X137237857Y-77714286D02*
X138209286Y-77714286D01*
X138323571Y-77657143D01*
X138380714Y-77600000D01*
X138437857Y-77485714D01*
X138437857Y-77257143D01*
X138380714Y-77142857D01*
X138323571Y-77085714D01*
X138209286Y-77028571D01*
X137237857Y-77028571D01*
X138437857Y-75828571D02*
X138437857Y-76514286D01*
X138437857Y-76171428D02*
X137237857Y-76171428D01*
X137409286Y-76285714D01*
X137523571Y-76400000D01*
X137580714Y-76514286D01*
X138457143Y-84366666D02*
X138504762Y-84414285D01*
X138552381Y-84557142D01*
X138552381Y-84652380D01*
X138504762Y-84795238D01*
X138409524Y-84890476D01*
X138314286Y-84938095D01*
X138123810Y-84985714D01*
X137980952Y-84985714D01*
X137790476Y-84938095D01*
X137695238Y-84890476D01*
X137600000Y-84795238D01*
X137552381Y-84652380D01*
X137552381Y-84557142D01*
X137600000Y-84414285D01*
X137647619Y-84366666D01*
X138552381Y-83414285D02*
X138552381Y-83985714D01*
X138552381Y-83700000D02*
X137552381Y-83700000D01*
X137695238Y-83795238D01*
X137790476Y-83890476D01*
X137838095Y-83985714D01*
X146252381Y-73266666D02*
X145776190Y-73600000D01*
X146252381Y-73838095D02*
X145252381Y-73838095D01*
X145252381Y-73457142D01*
X145300000Y-73361904D01*
X145347619Y-73314285D01*
X145442857Y-73266666D01*
X145585714Y-73266666D01*
X145680952Y-73314285D01*
X145728571Y-73361904D01*
X145776190Y-73457142D01*
X145776190Y-73838095D01*
X146252381Y-72314285D02*
X146252381Y-72885714D01*
X146252381Y-72600000D02*
X145252381Y-72600000D01*
X145395238Y-72695238D01*
X145490476Y-72790476D01*
X145538095Y-72885714D01*
X138752381Y-73466666D02*
X138276190Y-73800000D01*
X138752381Y-74038095D02*
X137752381Y-74038095D01*
X137752381Y-73657142D01*
X137800000Y-73561904D01*
X137847619Y-73514285D01*
X137942857Y-73466666D01*
X138085714Y-73466666D01*
X138180952Y-73514285D01*
X138228571Y-73561904D01*
X138276190Y-73657142D01*
X138276190Y-74038095D01*
X138085714Y-72609523D02*
X138752381Y-72609523D01*
X137704762Y-72847619D02*
X138419048Y-73085714D01*
X138419048Y-72466666D01*
X146152381Y-84338095D02*
X145152381Y-84338095D01*
X145152381Y-84100000D01*
X145200000Y-83957142D01*
X145295238Y-83861904D01*
X145390476Y-83814285D01*
X145580952Y-83766666D01*
X145723810Y-83766666D01*
X145914286Y-83814285D01*
X146009524Y-83861904D01*
X146104762Y-83957142D01*
X146152381Y-84100000D01*
X146152381Y-84338095D01*
X146152381Y-82814285D02*
X146152381Y-83385714D01*
X146152381Y-83100000D02*
X145152381Y-83100000D01*
X145295238Y-83195238D01*
X145390476Y-83290476D01*
X145438095Y-83385714D01*
X140985714Y-86942857D02*
X140985714Y-87914286D01*
X141042857Y-88028571D01*
X141100000Y-88085714D01*
X141214286Y-88142857D01*
X141442857Y-88142857D01*
X141557143Y-88085714D01*
X141614286Y-88028571D01*
X141671429Y-87914286D01*
X141671429Y-86942857D01*
X142185714Y-87057143D02*
X142242857Y-87000000D01*
X142357143Y-86942857D01*
X142642857Y-86942857D01*
X142757143Y-87000000D01*
X142814286Y-87057143D01*
X142871429Y-87171429D01*
X142871429Y-87285714D01*
X142814286Y-87457143D01*
X142128572Y-88142857D01*
X142871429Y-88142857D01*
X141228572Y-78842857D02*
X142028572Y-80042857D01*
X142028572Y-78842857D02*
X141228572Y-80042857D01*
X143114286Y-80042857D02*
X142428571Y-80042857D01*
X142771429Y-80042857D02*
X142771429Y-78842857D01*
X142657143Y-79014286D01*
X142542857Y-79128571D01*
X142428571Y-79185714D01*
X127728572Y-78842857D02*
X128528572Y-80042857D01*
X128528572Y-78842857D02*
X127728572Y-80042857D01*
X129614286Y-80042857D02*
X128928571Y-80042857D01*
X129271429Y-80042857D02*
X129271429Y-78842857D01*
X129157143Y-79014286D01*
X129042857Y-79128571D01*
X128928571Y-79185714D01*
X127485714Y-86942857D02*
X127485714Y-87914286D01*
X127542857Y-88028571D01*
X127600000Y-88085714D01*
X127714286Y-88142857D01*
X127942857Y-88142857D01*
X128057143Y-88085714D01*
X128114286Y-88028571D01*
X128171429Y-87914286D01*
X128171429Y-86942857D01*
X128685714Y-87057143D02*
X128742857Y-87000000D01*
X128857143Y-86942857D01*
X129142857Y-86942857D01*
X129257143Y-87000000D01*
X129314286Y-87057143D01*
X129371429Y-87171429D01*
X129371429Y-87285714D01*
X129314286Y-87457143D01*
X128628572Y-88142857D01*
X129371429Y-88142857D01*
X132652381Y-84338095D02*
X131652381Y-84338095D01*
X131652381Y-84100000D01*
X131700000Y-83957142D01*
X131795238Y-83861904D01*
X131890476Y-83814285D01*
X132080952Y-83766666D01*
X132223810Y-83766666D01*
X132414286Y-83814285D01*
X132509524Y-83861904D01*
X132604762Y-83957142D01*
X132652381Y-84100000D01*
X132652381Y-84338095D01*
X132652381Y-82814285D02*
X132652381Y-83385714D01*
X132652381Y-83100000D02*
X131652381Y-83100000D01*
X131795238Y-83195238D01*
X131890476Y-83290476D01*
X131938095Y-83385714D01*
X125252381Y-73466666D02*
X124776190Y-73800000D01*
X125252381Y-74038095D02*
X124252381Y-74038095D01*
X124252381Y-73657142D01*
X124300000Y-73561904D01*
X124347619Y-73514285D01*
X124442857Y-73466666D01*
X124585714Y-73466666D01*
X124680952Y-73514285D01*
X124728571Y-73561904D01*
X124776190Y-73657142D01*
X124776190Y-74038095D01*
X124585714Y-72609523D02*
X125252381Y-72609523D01*
X124204762Y-72847619D02*
X124919048Y-73085714D01*
X124919048Y-72466666D01*
X132752381Y-73266666D02*
X132276190Y-73600000D01*
X132752381Y-73838095D02*
X131752381Y-73838095D01*
X131752381Y-73457142D01*
X131800000Y-73361904D01*
X131847619Y-73314285D01*
X131942857Y-73266666D01*
X132085714Y-73266666D01*
X132180952Y-73314285D01*
X132228571Y-73361904D01*
X132276190Y-73457142D01*
X132276190Y-73838095D01*
X132752381Y-72314285D02*
X132752381Y-72885714D01*
X132752381Y-72600000D02*
X131752381Y-72600000D01*
X131895238Y-72695238D01*
X131990476Y-72790476D01*
X132038095Y-72885714D01*
X124957143Y-84366666D02*
X125004762Y-84414285D01*
X125052381Y-84557142D01*
X125052381Y-84652380D01*
X125004762Y-84795238D01*
X124909524Y-84890476D01*
X124814286Y-84938095D01*
X124623810Y-84985714D01*
X124480952Y-84985714D01*
X124290476Y-84938095D01*
X124195238Y-84890476D01*
X124100000Y-84795238D01*
X124052381Y-84652380D01*
X124052381Y-84557142D01*
X124100000Y-84414285D01*
X124147619Y-84366666D01*
X125052381Y-83414285D02*
X125052381Y-83985714D01*
X125052381Y-83700000D02*
X124052381Y-83700000D01*
X124195238Y-83795238D01*
X124290476Y-83890476D01*
X124338095Y-83985714D01*
X123737857Y-77714286D02*
X124709286Y-77714286D01*
X124823571Y-77657143D01*
X124880714Y-77600000D01*
X124937857Y-77485714D01*
X124937857Y-77257143D01*
X124880714Y-77142857D01*
X124823571Y-77085714D01*
X124709286Y-77028571D01*
X123737857Y-77028571D01*
X124937857Y-75828571D02*
X124937857Y-76514286D01*
X124937857Y-76171428D02*
X123737857Y-76171428D01*
X123909286Y-76285714D01*
X124023571Y-76400000D01*
X124080714Y-76514286D01*
X123737857Y-51714286D02*
X124709286Y-51714286D01*
X124823571Y-51657143D01*
X124880714Y-51600000D01*
X124937857Y-51485714D01*
X124937857Y-51257143D01*
X124880714Y-51142857D01*
X124823571Y-51085714D01*
X124709286Y-51028571D01*
X123737857Y-51028571D01*
X124937857Y-49828571D02*
X124937857Y-50514286D01*
X124937857Y-50171428D02*
X123737857Y-50171428D01*
X123909286Y-50285714D01*
X124023571Y-50400000D01*
X124080714Y-50514286D01*
X124957143Y-58366666D02*
X125004762Y-58414285D01*
X125052381Y-58557142D01*
X125052381Y-58652380D01*
X125004762Y-58795238D01*
X124909524Y-58890476D01*
X124814286Y-58938095D01*
X124623810Y-58985714D01*
X124480952Y-58985714D01*
X124290476Y-58938095D01*
X124195238Y-58890476D01*
X124100000Y-58795238D01*
X124052381Y-58652380D01*
X124052381Y-58557142D01*
X124100000Y-58414285D01*
X124147619Y-58366666D01*
X125052381Y-57414285D02*
X125052381Y-57985714D01*
X125052381Y-57700000D02*
X124052381Y-57700000D01*
X124195238Y-57795238D01*
X124290476Y-57890476D01*
X124338095Y-57985714D01*
X132752381Y-47266666D02*
X132276190Y-47600000D01*
X132752381Y-47838095D02*
X131752381Y-47838095D01*
X131752381Y-47457142D01*
X131800000Y-47361904D01*
X131847619Y-47314285D01*
X131942857Y-47266666D01*
X132085714Y-47266666D01*
X132180952Y-47314285D01*
X132228571Y-47361904D01*
X132276190Y-47457142D01*
X132276190Y-47838095D01*
X132752381Y-46314285D02*
X132752381Y-46885714D01*
X132752381Y-46600000D02*
X131752381Y-46600000D01*
X131895238Y-46695238D01*
X131990476Y-46790476D01*
X132038095Y-46885714D01*
X125252381Y-47466666D02*
X124776190Y-47800000D01*
X125252381Y-48038095D02*
X124252381Y-48038095D01*
X124252381Y-47657142D01*
X124300000Y-47561904D01*
X124347619Y-47514285D01*
X124442857Y-47466666D01*
X124585714Y-47466666D01*
X124680952Y-47514285D01*
X124728571Y-47561904D01*
X124776190Y-47657142D01*
X124776190Y-48038095D01*
X124585714Y-46609523D02*
X125252381Y-46609523D01*
X124204762Y-46847619D02*
X124919048Y-47085714D01*
X124919048Y-46466666D01*
X132652381Y-58338095D02*
X131652381Y-58338095D01*
X131652381Y-58100000D01*
X131700000Y-57957142D01*
X131795238Y-57861904D01*
X131890476Y-57814285D01*
X132080952Y-57766666D01*
X132223810Y-57766666D01*
X132414286Y-57814285D01*
X132509524Y-57861904D01*
X132604762Y-57957142D01*
X132652381Y-58100000D01*
X132652381Y-58338095D01*
X132652381Y-56814285D02*
X132652381Y-57385714D01*
X132652381Y-57100000D02*
X131652381Y-57100000D01*
X131795238Y-57195238D01*
X131890476Y-57290476D01*
X131938095Y-57385714D01*
X127485714Y-60942857D02*
X127485714Y-61914286D01*
X127542857Y-62028571D01*
X127600000Y-62085714D01*
X127714286Y-62142857D01*
X127942857Y-62142857D01*
X128057143Y-62085714D01*
X128114286Y-62028571D01*
X128171429Y-61914286D01*
X128171429Y-60942857D01*
X128685714Y-61057143D02*
X128742857Y-61000000D01*
X128857143Y-60942857D01*
X129142857Y-60942857D01*
X129257143Y-61000000D01*
X129314286Y-61057143D01*
X129371429Y-61171429D01*
X129371429Y-61285714D01*
X129314286Y-61457143D01*
X128628572Y-62142857D01*
X129371429Y-62142857D01*
X127728572Y-52842857D02*
X128528572Y-54042857D01*
X128528572Y-52842857D02*
X127728572Y-54042857D01*
X129614286Y-54042857D02*
X128928571Y-54042857D01*
X129271429Y-54042857D02*
X129271429Y-52842857D01*
X129157143Y-53014286D01*
X129042857Y-53128571D01*
X128928571Y-53185714D01*
X181728572Y-52842857D02*
X182528572Y-54042857D01*
X182528572Y-52842857D02*
X181728572Y-54042857D01*
X183614286Y-54042857D02*
X182928571Y-54042857D01*
X183271429Y-54042857D02*
X183271429Y-52842857D01*
X183157143Y-53014286D01*
X183042857Y-53128571D01*
X182928571Y-53185714D01*
X181485714Y-60942857D02*
X181485714Y-61914286D01*
X181542857Y-62028571D01*
X181600000Y-62085714D01*
X181714286Y-62142857D01*
X181942857Y-62142857D01*
X182057143Y-62085714D01*
X182114286Y-62028571D01*
X182171429Y-61914286D01*
X182171429Y-60942857D01*
X182685714Y-61057143D02*
X182742857Y-61000000D01*
X182857143Y-60942857D01*
X183142857Y-60942857D01*
X183257143Y-61000000D01*
X183314286Y-61057143D01*
X183371429Y-61171429D01*
X183371429Y-61285714D01*
X183314286Y-61457143D01*
X182628572Y-62142857D01*
X183371429Y-62142857D01*
X186652381Y-58338095D02*
X185652381Y-58338095D01*
X185652381Y-58100000D01*
X185700000Y-57957142D01*
X185795238Y-57861904D01*
X185890476Y-57814285D01*
X186080952Y-57766666D01*
X186223810Y-57766666D01*
X186414286Y-57814285D01*
X186509524Y-57861904D01*
X186604762Y-57957142D01*
X186652381Y-58100000D01*
X186652381Y-58338095D01*
X186652381Y-56814285D02*
X186652381Y-57385714D01*
X186652381Y-57100000D02*
X185652381Y-57100000D01*
X185795238Y-57195238D01*
X185890476Y-57290476D01*
X185938095Y-57385714D01*
X179252381Y-47466666D02*
X178776190Y-47800000D01*
X179252381Y-48038095D02*
X178252381Y-48038095D01*
X178252381Y-47657142D01*
X178300000Y-47561904D01*
X178347619Y-47514285D01*
X178442857Y-47466666D01*
X178585714Y-47466666D01*
X178680952Y-47514285D01*
X178728571Y-47561904D01*
X178776190Y-47657142D01*
X178776190Y-48038095D01*
X178585714Y-46609523D02*
X179252381Y-46609523D01*
X178204762Y-46847619D02*
X178919048Y-47085714D01*
X178919048Y-46466666D01*
X186752381Y-47266666D02*
X186276190Y-47600000D01*
X186752381Y-47838095D02*
X185752381Y-47838095D01*
X185752381Y-47457142D01*
X185800000Y-47361904D01*
X185847619Y-47314285D01*
X185942857Y-47266666D01*
X186085714Y-47266666D01*
X186180952Y-47314285D01*
X186228571Y-47361904D01*
X186276190Y-47457142D01*
X186276190Y-47838095D01*
X186752381Y-46314285D02*
X186752381Y-46885714D01*
X186752381Y-46600000D02*
X185752381Y-46600000D01*
X185895238Y-46695238D01*
X185990476Y-46790476D01*
X186038095Y-46885714D01*
X178957143Y-58366666D02*
X179004762Y-58414285D01*
X179052381Y-58557142D01*
X179052381Y-58652380D01*
X179004762Y-58795238D01*
X178909524Y-58890476D01*
X178814286Y-58938095D01*
X178623810Y-58985714D01*
X178480952Y-58985714D01*
X178290476Y-58938095D01*
X178195238Y-58890476D01*
X178100000Y-58795238D01*
X178052381Y-58652380D01*
X178052381Y-58557142D01*
X178100000Y-58414285D01*
X178147619Y-58366666D01*
X179052381Y-57414285D02*
X179052381Y-57985714D01*
X179052381Y-57700000D02*
X178052381Y-57700000D01*
X178195238Y-57795238D01*
X178290476Y-57890476D01*
X178338095Y-57985714D01*
X177737857Y-51714286D02*
X178709286Y-51714286D01*
X178823571Y-51657143D01*
X178880714Y-51600000D01*
X178937857Y-51485714D01*
X178937857Y-51257143D01*
X178880714Y-51142857D01*
X178823571Y-51085714D01*
X178709286Y-51028571D01*
X177737857Y-51028571D01*
X178937857Y-49828571D02*
X178937857Y-50514286D01*
X178937857Y-50171428D02*
X177737857Y-50171428D01*
X177909286Y-50285714D01*
X178023571Y-50400000D01*
X178080714Y-50514286D01*
X177737857Y-77714286D02*
X178709286Y-77714286D01*
X178823571Y-77657143D01*
X178880714Y-77600000D01*
X178937857Y-77485714D01*
X178937857Y-77257143D01*
X178880714Y-77142857D01*
X178823571Y-77085714D01*
X178709286Y-77028571D01*
X177737857Y-77028571D01*
X178937857Y-75828571D02*
X178937857Y-76514286D01*
X178937857Y-76171428D02*
X177737857Y-76171428D01*
X177909286Y-76285714D01*
X178023571Y-76400000D01*
X178080714Y-76514286D01*
X178957143Y-84366666D02*
X179004762Y-84414285D01*
X179052381Y-84557142D01*
X179052381Y-84652380D01*
X179004762Y-84795238D01*
X178909524Y-84890476D01*
X178814286Y-84938095D01*
X178623810Y-84985714D01*
X178480952Y-84985714D01*
X178290476Y-84938095D01*
X178195238Y-84890476D01*
X178100000Y-84795238D01*
X178052381Y-84652380D01*
X178052381Y-84557142D01*
X178100000Y-84414285D01*
X178147619Y-84366666D01*
X179052381Y-83414285D02*
X179052381Y-83985714D01*
X179052381Y-83700000D02*
X178052381Y-83700000D01*
X178195238Y-83795238D01*
X178290476Y-83890476D01*
X178338095Y-83985714D01*
X186752381Y-73266666D02*
X186276190Y-73600000D01*
X186752381Y-73838095D02*
X185752381Y-73838095D01*
X185752381Y-73457142D01*
X185800000Y-73361904D01*
X185847619Y-73314285D01*
X185942857Y-73266666D01*
X186085714Y-73266666D01*
X186180952Y-73314285D01*
X186228571Y-73361904D01*
X186276190Y-73457142D01*
X186276190Y-73838095D01*
X186752381Y-72314285D02*
X186752381Y-72885714D01*
X186752381Y-72600000D02*
X185752381Y-72600000D01*
X185895238Y-72695238D01*
X185990476Y-72790476D01*
X186038095Y-72885714D01*
X179252381Y-73466666D02*
X178776190Y-73800000D01*
X179252381Y-74038095D02*
X178252381Y-74038095D01*
X178252381Y-73657142D01*
X178300000Y-73561904D01*
X178347619Y-73514285D01*
X178442857Y-73466666D01*
X178585714Y-73466666D01*
X178680952Y-73514285D01*
X178728571Y-73561904D01*
X178776190Y-73657142D01*
X178776190Y-74038095D01*
X178585714Y-72609523D02*
X179252381Y-72609523D01*
X178204762Y-72847619D02*
X178919048Y-73085714D01*
X178919048Y-72466666D01*
X186652381Y-84338095D02*
X185652381Y-84338095D01*
X185652381Y-84100000D01*
X185700000Y-83957142D01*
X185795238Y-83861904D01*
X185890476Y-83814285D01*
X186080952Y-83766666D01*
X186223810Y-83766666D01*
X186414286Y-83814285D01*
X186509524Y-83861904D01*
X186604762Y-83957142D01*
X186652381Y-84100000D01*
X186652381Y-84338095D01*
X186652381Y-82814285D02*
X186652381Y-83385714D01*
X186652381Y-83100000D02*
X185652381Y-83100000D01*
X185795238Y-83195238D01*
X185890476Y-83290476D01*
X185938095Y-83385714D01*
X181485714Y-86942857D02*
X181485714Y-87914286D01*
X181542857Y-88028571D01*
X181600000Y-88085714D01*
X181714286Y-88142857D01*
X181942857Y-88142857D01*
X182057143Y-88085714D01*
X182114286Y-88028571D01*
X182171429Y-87914286D01*
X182171429Y-86942857D01*
X182685714Y-87057143D02*
X182742857Y-87000000D01*
X182857143Y-86942857D01*
X183142857Y-86942857D01*
X183257143Y-87000000D01*
X183314286Y-87057143D01*
X183371429Y-87171429D01*
X183371429Y-87285714D01*
X183314286Y-87457143D01*
X182628572Y-88142857D01*
X183371429Y-88142857D01*
X181728572Y-78842857D02*
X182528572Y-80042857D01*
X182528572Y-78842857D02*
X181728572Y-80042857D01*
X183614286Y-80042857D02*
X182928571Y-80042857D01*
X183271429Y-80042857D02*
X183271429Y-78842857D01*
X183157143Y-79014286D01*
X183042857Y-79128571D01*
X182928571Y-79185714D01*
X195228572Y-78842857D02*
X196028572Y-80042857D01*
X196028572Y-78842857D02*
X195228572Y-80042857D01*
X197114286Y-80042857D02*
X196428571Y-80042857D01*
X196771429Y-80042857D02*
X196771429Y-78842857D01*
X196657143Y-79014286D01*
X196542857Y-79128571D01*
X196428571Y-79185714D01*
X194985714Y-86942857D02*
X194985714Y-87914286D01*
X195042857Y-88028571D01*
X195100000Y-88085714D01*
X195214286Y-88142857D01*
X195442857Y-88142857D01*
X195557143Y-88085714D01*
X195614286Y-88028571D01*
X195671429Y-87914286D01*
X195671429Y-86942857D01*
X196185714Y-87057143D02*
X196242857Y-87000000D01*
X196357143Y-86942857D01*
X196642857Y-86942857D01*
X196757143Y-87000000D01*
X196814286Y-87057143D01*
X196871429Y-87171429D01*
X196871429Y-87285714D01*
X196814286Y-87457143D01*
X196128572Y-88142857D01*
X196871429Y-88142857D01*
X200152381Y-84338095D02*
X199152381Y-84338095D01*
X199152381Y-84100000D01*
X199200000Y-83957142D01*
X199295238Y-83861904D01*
X199390476Y-83814285D01*
X199580952Y-83766666D01*
X199723810Y-83766666D01*
X199914286Y-83814285D01*
X200009524Y-83861904D01*
X200104762Y-83957142D01*
X200152381Y-84100000D01*
X200152381Y-84338095D01*
X200152381Y-82814285D02*
X200152381Y-83385714D01*
X200152381Y-83100000D02*
X199152381Y-83100000D01*
X199295238Y-83195238D01*
X199390476Y-83290476D01*
X199438095Y-83385714D01*
X192752381Y-73466666D02*
X192276190Y-73800000D01*
X192752381Y-74038095D02*
X191752381Y-74038095D01*
X191752381Y-73657142D01*
X191800000Y-73561904D01*
X191847619Y-73514285D01*
X191942857Y-73466666D01*
X192085714Y-73466666D01*
X192180952Y-73514285D01*
X192228571Y-73561904D01*
X192276190Y-73657142D01*
X192276190Y-74038095D01*
X192085714Y-72609523D02*
X192752381Y-72609523D01*
X191704762Y-72847619D02*
X192419048Y-73085714D01*
X192419048Y-72466666D01*
X200252381Y-73266666D02*
X199776190Y-73600000D01*
X200252381Y-73838095D02*
X199252381Y-73838095D01*
X199252381Y-73457142D01*
X199300000Y-73361904D01*
X199347619Y-73314285D01*
X199442857Y-73266666D01*
X199585714Y-73266666D01*
X199680952Y-73314285D01*
X199728571Y-73361904D01*
X199776190Y-73457142D01*
X199776190Y-73838095D01*
X200252381Y-72314285D02*
X200252381Y-72885714D01*
X200252381Y-72600000D02*
X199252381Y-72600000D01*
X199395238Y-72695238D01*
X199490476Y-72790476D01*
X199538095Y-72885714D01*
X192457143Y-84366666D02*
X192504762Y-84414285D01*
X192552381Y-84557142D01*
X192552381Y-84652380D01*
X192504762Y-84795238D01*
X192409524Y-84890476D01*
X192314286Y-84938095D01*
X192123810Y-84985714D01*
X191980952Y-84985714D01*
X191790476Y-84938095D01*
X191695238Y-84890476D01*
X191600000Y-84795238D01*
X191552381Y-84652380D01*
X191552381Y-84557142D01*
X191600000Y-84414285D01*
X191647619Y-84366666D01*
X192552381Y-83414285D02*
X192552381Y-83985714D01*
X192552381Y-83700000D02*
X191552381Y-83700000D01*
X191695238Y-83795238D01*
X191790476Y-83890476D01*
X191838095Y-83985714D01*
X191237857Y-77714286D02*
X192209286Y-77714286D01*
X192323571Y-77657143D01*
X192380714Y-77600000D01*
X192437857Y-77485714D01*
X192437857Y-77257143D01*
X192380714Y-77142857D01*
X192323571Y-77085714D01*
X192209286Y-77028571D01*
X191237857Y-77028571D01*
X192437857Y-75828571D02*
X192437857Y-76514286D01*
X192437857Y-76171428D02*
X191237857Y-76171428D01*
X191409286Y-76285714D01*
X191523571Y-76400000D01*
X191580714Y-76514286D01*
X191237857Y-51714286D02*
X192209286Y-51714286D01*
X192323571Y-51657143D01*
X192380714Y-51600000D01*
X192437857Y-51485714D01*
X192437857Y-51257143D01*
X192380714Y-51142857D01*
X192323571Y-51085714D01*
X192209286Y-51028571D01*
X191237857Y-51028571D01*
X192437857Y-49828571D02*
X192437857Y-50514286D01*
X192437857Y-50171428D02*
X191237857Y-50171428D01*
X191409286Y-50285714D01*
X191523571Y-50400000D01*
X191580714Y-50514286D01*
X192457143Y-58366666D02*
X192504762Y-58414285D01*
X192552381Y-58557142D01*
X192552381Y-58652380D01*
X192504762Y-58795238D01*
X192409524Y-58890476D01*
X192314286Y-58938095D01*
X192123810Y-58985714D01*
X191980952Y-58985714D01*
X191790476Y-58938095D01*
X191695238Y-58890476D01*
X191600000Y-58795238D01*
X191552381Y-58652380D01*
X191552381Y-58557142D01*
X191600000Y-58414285D01*
X191647619Y-58366666D01*
X192552381Y-57414285D02*
X192552381Y-57985714D01*
X192552381Y-57700000D02*
X191552381Y-57700000D01*
X191695238Y-57795238D01*
X191790476Y-57890476D01*
X191838095Y-57985714D01*
X200252381Y-47266666D02*
X199776190Y-47600000D01*
X200252381Y-47838095D02*
X199252381Y-47838095D01*
X199252381Y-47457142D01*
X199300000Y-47361904D01*
X199347619Y-47314285D01*
X199442857Y-47266666D01*
X199585714Y-47266666D01*
X199680952Y-47314285D01*
X199728571Y-47361904D01*
X199776190Y-47457142D01*
X199776190Y-47838095D01*
X200252381Y-46314285D02*
X200252381Y-46885714D01*
X200252381Y-46600000D02*
X199252381Y-46600000D01*
X199395238Y-46695238D01*
X199490476Y-46790476D01*
X199538095Y-46885714D01*
X192752381Y-47466666D02*
X192276190Y-47800000D01*
X192752381Y-48038095D02*
X191752381Y-48038095D01*
X191752381Y-47657142D01*
X191800000Y-47561904D01*
X191847619Y-47514285D01*
X191942857Y-47466666D01*
X192085714Y-47466666D01*
X192180952Y-47514285D01*
X192228571Y-47561904D01*
X192276190Y-47657142D01*
X192276190Y-48038095D01*
X192085714Y-46609523D02*
X192752381Y-46609523D01*
X191704762Y-46847619D02*
X192419048Y-47085714D01*
X192419048Y-46466666D01*
X200152381Y-58338095D02*
X199152381Y-58338095D01*
X199152381Y-58100000D01*
X199200000Y-57957142D01*
X199295238Y-57861904D01*
X199390476Y-57814285D01*
X199580952Y-57766666D01*
X199723810Y-57766666D01*
X199914286Y-57814285D01*
X200009524Y-57861904D01*
X200104762Y-57957142D01*
X200152381Y-58100000D01*
X200152381Y-58338095D01*
X200152381Y-56814285D02*
X200152381Y-57385714D01*
X200152381Y-57100000D02*
X199152381Y-57100000D01*
X199295238Y-57195238D01*
X199390476Y-57290476D01*
X199438095Y-57385714D01*
X194985714Y-60942857D02*
X194985714Y-61914286D01*
X195042857Y-62028571D01*
X195100000Y-62085714D01*
X195214286Y-62142857D01*
X195442857Y-62142857D01*
X195557143Y-62085714D01*
X195614286Y-62028571D01*
X195671429Y-61914286D01*
X195671429Y-60942857D01*
X196185714Y-61057143D02*
X196242857Y-61000000D01*
X196357143Y-60942857D01*
X196642857Y-60942857D01*
X196757143Y-61000000D01*
X196814286Y-61057143D01*
X196871429Y-61171429D01*
X196871429Y-61285714D01*
X196814286Y-61457143D01*
X196128572Y-62142857D01*
X196871429Y-62142857D01*
X195228572Y-52842857D02*
X196028572Y-54042857D01*
X196028572Y-52842857D02*
X195228572Y-54042857D01*
X197114286Y-54042857D02*
X196428571Y-54042857D01*
X196771429Y-54042857D02*
X196771429Y-52842857D01*
X196657143Y-53014286D01*
X196542857Y-53128571D01*
X196428571Y-53185714D01*
X168228572Y-52842857D02*
X169028572Y-54042857D01*
X169028572Y-52842857D02*
X168228572Y-54042857D01*
X170114286Y-54042857D02*
X169428571Y-54042857D01*
X169771429Y-54042857D02*
X169771429Y-52842857D01*
X169657143Y-53014286D01*
X169542857Y-53128571D01*
X169428571Y-53185714D01*
X167985714Y-60942857D02*
X167985714Y-61914286D01*
X168042857Y-62028571D01*
X168100000Y-62085714D01*
X168214286Y-62142857D01*
X168442857Y-62142857D01*
X168557143Y-62085714D01*
X168614286Y-62028571D01*
X168671429Y-61914286D01*
X168671429Y-60942857D01*
X169185714Y-61057143D02*
X169242857Y-61000000D01*
X169357143Y-60942857D01*
X169642857Y-60942857D01*
X169757143Y-61000000D01*
X169814286Y-61057143D01*
X169871429Y-61171429D01*
X169871429Y-61285714D01*
X169814286Y-61457143D01*
X169128572Y-62142857D01*
X169871429Y-62142857D01*
X173152381Y-58338095D02*
X172152381Y-58338095D01*
X172152381Y-58100000D01*
X172200000Y-57957142D01*
X172295238Y-57861904D01*
X172390476Y-57814285D01*
X172580952Y-57766666D01*
X172723810Y-57766666D01*
X172914286Y-57814285D01*
X173009524Y-57861904D01*
X173104762Y-57957142D01*
X173152381Y-58100000D01*
X173152381Y-58338095D01*
X173152381Y-56814285D02*
X173152381Y-57385714D01*
X173152381Y-57100000D02*
X172152381Y-57100000D01*
X172295238Y-57195238D01*
X172390476Y-57290476D01*
X172438095Y-57385714D01*
X165752381Y-47466666D02*
X165276190Y-47800000D01*
X165752381Y-48038095D02*
X164752381Y-48038095D01*
X164752381Y-47657142D01*
X164800000Y-47561904D01*
X164847619Y-47514285D01*
X164942857Y-47466666D01*
X165085714Y-47466666D01*
X165180952Y-47514285D01*
X165228571Y-47561904D01*
X165276190Y-47657142D01*
X165276190Y-48038095D01*
X165085714Y-46609523D02*
X165752381Y-46609523D01*
X164704762Y-46847619D02*
X165419048Y-47085714D01*
X165419048Y-46466666D01*
X173252381Y-47266666D02*
X172776190Y-47600000D01*
X173252381Y-47838095D02*
X172252381Y-47838095D01*
X172252381Y-47457142D01*
X172300000Y-47361904D01*
X172347619Y-47314285D01*
X172442857Y-47266666D01*
X172585714Y-47266666D01*
X172680952Y-47314285D01*
X172728571Y-47361904D01*
X172776190Y-47457142D01*
X172776190Y-47838095D01*
X173252381Y-46314285D02*
X173252381Y-46885714D01*
X173252381Y-46600000D02*
X172252381Y-46600000D01*
X172395238Y-46695238D01*
X172490476Y-46790476D01*
X172538095Y-46885714D01*
X165457143Y-58366666D02*
X165504762Y-58414285D01*
X165552381Y-58557142D01*
X165552381Y-58652380D01*
X165504762Y-58795238D01*
X165409524Y-58890476D01*
X165314286Y-58938095D01*
X165123810Y-58985714D01*
X164980952Y-58985714D01*
X164790476Y-58938095D01*
X164695238Y-58890476D01*
X164600000Y-58795238D01*
X164552381Y-58652380D01*
X164552381Y-58557142D01*
X164600000Y-58414285D01*
X164647619Y-58366666D01*
X165552381Y-57414285D02*
X165552381Y-57985714D01*
X165552381Y-57700000D02*
X164552381Y-57700000D01*
X164695238Y-57795238D01*
X164790476Y-57890476D01*
X164838095Y-57985714D01*
X164237857Y-51714286D02*
X165209286Y-51714286D01*
X165323571Y-51657143D01*
X165380714Y-51600000D01*
X165437857Y-51485714D01*
X165437857Y-51257143D01*
X165380714Y-51142857D01*
X165323571Y-51085714D01*
X165209286Y-51028571D01*
X164237857Y-51028571D01*
X165437857Y-49828571D02*
X165437857Y-50514286D01*
X165437857Y-50171428D02*
X164237857Y-50171428D01*
X164409286Y-50285714D01*
X164523571Y-50400000D01*
X164580714Y-50514286D01*
X164237857Y-77714286D02*
X165209286Y-77714286D01*
X165323571Y-77657143D01*
X165380714Y-77600000D01*
X165437857Y-77485714D01*
X165437857Y-77257143D01*
X165380714Y-77142857D01*
X165323571Y-77085714D01*
X165209286Y-77028571D01*
X164237857Y-77028571D01*
X165437857Y-75828571D02*
X165437857Y-76514286D01*
X165437857Y-76171428D02*
X164237857Y-76171428D01*
X164409286Y-76285714D01*
X164523571Y-76400000D01*
X164580714Y-76514286D01*
X165457143Y-84366666D02*
X165504762Y-84414285D01*
X165552381Y-84557142D01*
X165552381Y-84652380D01*
X165504762Y-84795238D01*
X165409524Y-84890476D01*
X165314286Y-84938095D01*
X165123810Y-84985714D01*
X164980952Y-84985714D01*
X164790476Y-84938095D01*
X164695238Y-84890476D01*
X164600000Y-84795238D01*
X164552381Y-84652380D01*
X164552381Y-84557142D01*
X164600000Y-84414285D01*
X164647619Y-84366666D01*
X165552381Y-83414285D02*
X165552381Y-83985714D01*
X165552381Y-83700000D02*
X164552381Y-83700000D01*
X164695238Y-83795238D01*
X164790476Y-83890476D01*
X164838095Y-83985714D01*
X173252381Y-73266666D02*
X172776190Y-73600000D01*
X173252381Y-73838095D02*
X172252381Y-73838095D01*
X172252381Y-73457142D01*
X172300000Y-73361904D01*
X172347619Y-73314285D01*
X172442857Y-73266666D01*
X172585714Y-73266666D01*
X172680952Y-73314285D01*
X172728571Y-73361904D01*
X172776190Y-73457142D01*
X172776190Y-73838095D01*
X173252381Y-72314285D02*
X173252381Y-72885714D01*
X173252381Y-72600000D02*
X172252381Y-72600000D01*
X172395238Y-72695238D01*
X172490476Y-72790476D01*
X172538095Y-72885714D01*
X165752381Y-73466666D02*
X165276190Y-73800000D01*
X165752381Y-74038095D02*
X164752381Y-74038095D01*
X164752381Y-73657142D01*
X164800000Y-73561904D01*
X164847619Y-73514285D01*
X164942857Y-73466666D01*
X165085714Y-73466666D01*
X165180952Y-73514285D01*
X165228571Y-73561904D01*
X165276190Y-73657142D01*
X165276190Y-74038095D01*
X165085714Y-72609523D02*
X165752381Y-72609523D01*
X164704762Y-72847619D02*
X165419048Y-73085714D01*
X165419048Y-72466666D01*
X173152381Y-84338095D02*
X172152381Y-84338095D01*
X172152381Y-84100000D01*
X172200000Y-83957142D01*
X172295238Y-83861904D01*
X172390476Y-83814285D01*
X172580952Y-83766666D01*
X172723810Y-83766666D01*
X172914286Y-83814285D01*
X173009524Y-83861904D01*
X173104762Y-83957142D01*
X173152381Y-84100000D01*
X173152381Y-84338095D01*
X173152381Y-82814285D02*
X173152381Y-83385714D01*
X173152381Y-83100000D02*
X172152381Y-83100000D01*
X172295238Y-83195238D01*
X172390476Y-83290476D01*
X172438095Y-83385714D01*
X167985714Y-86942857D02*
X167985714Y-87914286D01*
X168042857Y-88028571D01*
X168100000Y-88085714D01*
X168214286Y-88142857D01*
X168442857Y-88142857D01*
X168557143Y-88085714D01*
X168614286Y-88028571D01*
X168671429Y-87914286D01*
X168671429Y-86942857D01*
X169185714Y-87057143D02*
X169242857Y-87000000D01*
X169357143Y-86942857D01*
X169642857Y-86942857D01*
X169757143Y-87000000D01*
X169814286Y-87057143D01*
X169871429Y-87171429D01*
X169871429Y-87285714D01*
X169814286Y-87457143D01*
X169128572Y-88142857D01*
X169871429Y-88142857D01*
X168228572Y-78842857D02*
X169028572Y-80042857D01*
X169028572Y-78842857D02*
X168228572Y-80042857D01*
X170114286Y-80042857D02*
X169428571Y-80042857D01*
X169771429Y-80042857D02*
X169771429Y-78842857D01*
X169657143Y-79014286D01*
X169542857Y-79128571D01*
X169428571Y-79185714D01*
X168228572Y-130842857D02*
X169028572Y-132042857D01*
X169028572Y-130842857D02*
X168228572Y-132042857D01*
X170114286Y-132042857D02*
X169428571Y-132042857D01*
X169771429Y-132042857D02*
X169771429Y-130842857D01*
X169657143Y-131014286D01*
X169542857Y-131128571D01*
X169428571Y-131185714D01*
X167985714Y-138942857D02*
X167985714Y-139914286D01*
X168042857Y-140028571D01*
X168100000Y-140085714D01*
X168214286Y-140142857D01*
X168442857Y-140142857D01*
X168557143Y-140085714D01*
X168614286Y-140028571D01*
X168671429Y-139914286D01*
X168671429Y-138942857D01*
X169185714Y-139057143D02*
X169242857Y-139000000D01*
X169357143Y-138942857D01*
X169642857Y-138942857D01*
X169757143Y-139000000D01*
X169814286Y-139057143D01*
X169871429Y-139171429D01*
X169871429Y-139285714D01*
X169814286Y-139457143D01*
X169128572Y-140142857D01*
X169871429Y-140142857D01*
X173152381Y-136338095D02*
X172152381Y-136338095D01*
X172152381Y-136100000D01*
X172200000Y-135957142D01*
X172295238Y-135861904D01*
X172390476Y-135814285D01*
X172580952Y-135766666D01*
X172723810Y-135766666D01*
X172914286Y-135814285D01*
X173009524Y-135861904D01*
X173104762Y-135957142D01*
X173152381Y-136100000D01*
X173152381Y-136338095D01*
X173152381Y-134814285D02*
X173152381Y-135385714D01*
X173152381Y-135100000D02*
X172152381Y-135100000D01*
X172295238Y-135195238D01*
X172390476Y-135290476D01*
X172438095Y-135385714D01*
X165752381Y-125466666D02*
X165276190Y-125800000D01*
X165752381Y-126038095D02*
X164752381Y-126038095D01*
X164752381Y-125657142D01*
X164800000Y-125561904D01*
X164847619Y-125514285D01*
X164942857Y-125466666D01*
X165085714Y-125466666D01*
X165180952Y-125514285D01*
X165228571Y-125561904D01*
X165276190Y-125657142D01*
X165276190Y-126038095D01*
X165085714Y-124609523D02*
X165752381Y-124609523D01*
X164704762Y-124847619D02*
X165419048Y-125085714D01*
X165419048Y-124466666D01*
X173252381Y-125266666D02*
X172776190Y-125600000D01*
X173252381Y-125838095D02*
X172252381Y-125838095D01*
X172252381Y-125457142D01*
X172300000Y-125361904D01*
X172347619Y-125314285D01*
X172442857Y-125266666D01*
X172585714Y-125266666D01*
X172680952Y-125314285D01*
X172728571Y-125361904D01*
X172776190Y-125457142D01*
X172776190Y-125838095D01*
X173252381Y-124314285D02*
X173252381Y-124885714D01*
X173252381Y-124600000D02*
X172252381Y-124600000D01*
X172395238Y-124695238D01*
X172490476Y-124790476D01*
X172538095Y-124885714D01*
X165457143Y-136366666D02*
X165504762Y-136414285D01*
X165552381Y-136557142D01*
X165552381Y-136652380D01*
X165504762Y-136795238D01*
X165409524Y-136890476D01*
X165314286Y-136938095D01*
X165123810Y-136985714D01*
X164980952Y-136985714D01*
X164790476Y-136938095D01*
X164695238Y-136890476D01*
X164600000Y-136795238D01*
X164552381Y-136652380D01*
X164552381Y-136557142D01*
X164600000Y-136414285D01*
X164647619Y-136366666D01*
X165552381Y-135414285D02*
X165552381Y-135985714D01*
X165552381Y-135700000D02*
X164552381Y-135700000D01*
X164695238Y-135795238D01*
X164790476Y-135890476D01*
X164838095Y-135985714D01*
X164237857Y-129714286D02*
X165209286Y-129714286D01*
X165323571Y-129657143D01*
X165380714Y-129600000D01*
X165437857Y-129485714D01*
X165437857Y-129257143D01*
X165380714Y-129142857D01*
X165323571Y-129085714D01*
X165209286Y-129028571D01*
X164237857Y-129028571D01*
X165437857Y-127828571D02*
X165437857Y-128514286D01*
X165437857Y-128171428D02*
X164237857Y-128171428D01*
X164409286Y-128285714D01*
X164523571Y-128400000D01*
X164580714Y-128514286D01*
X164237857Y-103714286D02*
X165209286Y-103714286D01*
X165323571Y-103657143D01*
X165380714Y-103600000D01*
X165437857Y-103485714D01*
X165437857Y-103257143D01*
X165380714Y-103142857D01*
X165323571Y-103085714D01*
X165209286Y-103028571D01*
X164237857Y-103028571D01*
X165437857Y-101828571D02*
X165437857Y-102514286D01*
X165437857Y-102171428D02*
X164237857Y-102171428D01*
X164409286Y-102285714D01*
X164523571Y-102400000D01*
X164580714Y-102514286D01*
X165457143Y-110366666D02*
X165504762Y-110414285D01*
X165552381Y-110557142D01*
X165552381Y-110652380D01*
X165504762Y-110795238D01*
X165409524Y-110890476D01*
X165314286Y-110938095D01*
X165123810Y-110985714D01*
X164980952Y-110985714D01*
X164790476Y-110938095D01*
X164695238Y-110890476D01*
X164600000Y-110795238D01*
X164552381Y-110652380D01*
X164552381Y-110557142D01*
X164600000Y-110414285D01*
X164647619Y-110366666D01*
X165552381Y-109414285D02*
X165552381Y-109985714D01*
X165552381Y-109700000D02*
X164552381Y-109700000D01*
X164695238Y-109795238D01*
X164790476Y-109890476D01*
X164838095Y-109985714D01*
X173252381Y-99266666D02*
X172776190Y-99600000D01*
X173252381Y-99838095D02*
X172252381Y-99838095D01*
X172252381Y-99457142D01*
X172300000Y-99361904D01*
X172347619Y-99314285D01*
X172442857Y-99266666D01*
X172585714Y-99266666D01*
X172680952Y-99314285D01*
X172728571Y-99361904D01*
X172776190Y-99457142D01*
X172776190Y-99838095D01*
X173252381Y-98314285D02*
X173252381Y-98885714D01*
X173252381Y-98600000D02*
X172252381Y-98600000D01*
X172395238Y-98695238D01*
X172490476Y-98790476D01*
X172538095Y-98885714D01*
X165752381Y-99466666D02*
X165276190Y-99800000D01*
X165752381Y-100038095D02*
X164752381Y-100038095D01*
X164752381Y-99657142D01*
X164800000Y-99561904D01*
X164847619Y-99514285D01*
X164942857Y-99466666D01*
X165085714Y-99466666D01*
X165180952Y-99514285D01*
X165228571Y-99561904D01*
X165276190Y-99657142D01*
X165276190Y-100038095D01*
X165085714Y-98609523D02*
X165752381Y-98609523D01*
X164704762Y-98847619D02*
X165419048Y-99085714D01*
X165419048Y-98466666D01*
X173152381Y-110338095D02*
X172152381Y-110338095D01*
X172152381Y-110100000D01*
X172200000Y-109957142D01*
X172295238Y-109861904D01*
X172390476Y-109814285D01*
X172580952Y-109766666D01*
X172723810Y-109766666D01*
X172914286Y-109814285D01*
X173009524Y-109861904D01*
X173104762Y-109957142D01*
X173152381Y-110100000D01*
X173152381Y-110338095D01*
X173152381Y-108814285D02*
X173152381Y-109385714D01*
X173152381Y-109100000D02*
X172152381Y-109100000D01*
X172295238Y-109195238D01*
X172390476Y-109290476D01*
X172438095Y-109385714D01*
X167985714Y-112942857D02*
X167985714Y-113914286D01*
X168042857Y-114028571D01*
X168100000Y-114085714D01*
X168214286Y-114142857D01*
X168442857Y-114142857D01*
X168557143Y-114085714D01*
X168614286Y-114028571D01*
X168671429Y-113914286D01*
X168671429Y-112942857D01*
X169185714Y-113057143D02*
X169242857Y-113000000D01*
X169357143Y-112942857D01*
X169642857Y-112942857D01*
X169757143Y-113000000D01*
X169814286Y-113057143D01*
X169871429Y-113171429D01*
X169871429Y-113285714D01*
X169814286Y-113457143D01*
X169128572Y-114142857D01*
X169871429Y-114142857D01*
X168228572Y-104842857D02*
X169028572Y-106042857D01*
X169028572Y-104842857D02*
X168228572Y-106042857D01*
X170114286Y-106042857D02*
X169428571Y-106042857D01*
X169771429Y-106042857D02*
X169771429Y-104842857D01*
X169657143Y-105014286D01*
X169542857Y-105128571D01*
X169428571Y-105185714D01*
X195228572Y-104842857D02*
X196028572Y-106042857D01*
X196028572Y-104842857D02*
X195228572Y-106042857D01*
X197114286Y-106042857D02*
X196428571Y-106042857D01*
X196771429Y-106042857D02*
X196771429Y-104842857D01*
X196657143Y-105014286D01*
X196542857Y-105128571D01*
X196428571Y-105185714D01*
X194985714Y-112942857D02*
X194985714Y-113914286D01*
X195042857Y-114028571D01*
X195100000Y-114085714D01*
X195214286Y-114142857D01*
X195442857Y-114142857D01*
X195557143Y-114085714D01*
X195614286Y-114028571D01*
X195671429Y-113914286D01*
X195671429Y-112942857D01*
X196185714Y-113057143D02*
X196242857Y-113000000D01*
X196357143Y-112942857D01*
X196642857Y-112942857D01*
X196757143Y-113000000D01*
X196814286Y-113057143D01*
X196871429Y-113171429D01*
X196871429Y-113285714D01*
X196814286Y-113457143D01*
X196128572Y-114142857D01*
X196871429Y-114142857D01*
X200152381Y-110338095D02*
X199152381Y-110338095D01*
X199152381Y-110100000D01*
X199200000Y-109957142D01*
X199295238Y-109861904D01*
X199390476Y-109814285D01*
X199580952Y-109766666D01*
X199723810Y-109766666D01*
X199914286Y-109814285D01*
X200009524Y-109861904D01*
X200104762Y-109957142D01*
X200152381Y-110100000D01*
X200152381Y-110338095D01*
X200152381Y-108814285D02*
X200152381Y-109385714D01*
X200152381Y-109100000D02*
X199152381Y-109100000D01*
X199295238Y-109195238D01*
X199390476Y-109290476D01*
X199438095Y-109385714D01*
X192752381Y-99466666D02*
X192276190Y-99800000D01*
X192752381Y-100038095D02*
X191752381Y-100038095D01*
X191752381Y-99657142D01*
X191800000Y-99561904D01*
X191847619Y-99514285D01*
X191942857Y-99466666D01*
X192085714Y-99466666D01*
X192180952Y-99514285D01*
X192228571Y-99561904D01*
X192276190Y-99657142D01*
X192276190Y-100038095D01*
X192085714Y-98609523D02*
X192752381Y-98609523D01*
X191704762Y-98847619D02*
X192419048Y-99085714D01*
X192419048Y-98466666D01*
X200252381Y-99266666D02*
X199776190Y-99600000D01*
X200252381Y-99838095D02*
X199252381Y-99838095D01*
X199252381Y-99457142D01*
X199300000Y-99361904D01*
X199347619Y-99314285D01*
X199442857Y-99266666D01*
X199585714Y-99266666D01*
X199680952Y-99314285D01*
X199728571Y-99361904D01*
X199776190Y-99457142D01*
X199776190Y-99838095D01*
X200252381Y-98314285D02*
X200252381Y-98885714D01*
X200252381Y-98600000D02*
X199252381Y-98600000D01*
X199395238Y-98695238D01*
X199490476Y-98790476D01*
X199538095Y-98885714D01*
X192457143Y-110366666D02*
X192504762Y-110414285D01*
X192552381Y-110557142D01*
X192552381Y-110652380D01*
X192504762Y-110795238D01*
X192409524Y-110890476D01*
X192314286Y-110938095D01*
X192123810Y-110985714D01*
X191980952Y-110985714D01*
X191790476Y-110938095D01*
X191695238Y-110890476D01*
X191600000Y-110795238D01*
X191552381Y-110652380D01*
X191552381Y-110557142D01*
X191600000Y-110414285D01*
X191647619Y-110366666D01*
X192552381Y-109414285D02*
X192552381Y-109985714D01*
X192552381Y-109700000D02*
X191552381Y-109700000D01*
X191695238Y-109795238D01*
X191790476Y-109890476D01*
X191838095Y-109985714D01*
X191237857Y-103714286D02*
X192209286Y-103714286D01*
X192323571Y-103657143D01*
X192380714Y-103600000D01*
X192437857Y-103485714D01*
X192437857Y-103257143D01*
X192380714Y-103142857D01*
X192323571Y-103085714D01*
X192209286Y-103028571D01*
X191237857Y-103028571D01*
X192437857Y-101828571D02*
X192437857Y-102514286D01*
X192437857Y-102171428D02*
X191237857Y-102171428D01*
X191409286Y-102285714D01*
X191523571Y-102400000D01*
X191580714Y-102514286D01*
X191237857Y-129714286D02*
X192209286Y-129714286D01*
X192323571Y-129657143D01*
X192380714Y-129600000D01*
X192437857Y-129485714D01*
X192437857Y-129257143D01*
X192380714Y-129142857D01*
X192323571Y-129085714D01*
X192209286Y-129028571D01*
X191237857Y-129028571D01*
X192437857Y-127828571D02*
X192437857Y-128514286D01*
X192437857Y-128171428D02*
X191237857Y-128171428D01*
X191409286Y-128285714D01*
X191523571Y-128400000D01*
X191580714Y-128514286D01*
X192457143Y-136366666D02*
X192504762Y-136414285D01*
X192552381Y-136557142D01*
X192552381Y-136652380D01*
X192504762Y-136795238D01*
X192409524Y-136890476D01*
X192314286Y-136938095D01*
X192123810Y-136985714D01*
X191980952Y-136985714D01*
X191790476Y-136938095D01*
X191695238Y-136890476D01*
X191600000Y-136795238D01*
X191552381Y-136652380D01*
X191552381Y-136557142D01*
X191600000Y-136414285D01*
X191647619Y-136366666D01*
X192552381Y-135414285D02*
X192552381Y-135985714D01*
X192552381Y-135700000D02*
X191552381Y-135700000D01*
X191695238Y-135795238D01*
X191790476Y-135890476D01*
X191838095Y-135985714D01*
X200252381Y-125266666D02*
X199776190Y-125600000D01*
X200252381Y-125838095D02*
X199252381Y-125838095D01*
X199252381Y-125457142D01*
X199300000Y-125361904D01*
X199347619Y-125314285D01*
X199442857Y-125266666D01*
X199585714Y-125266666D01*
X199680952Y-125314285D01*
X199728571Y-125361904D01*
X199776190Y-125457142D01*
X199776190Y-125838095D01*
X200252381Y-124314285D02*
X200252381Y-124885714D01*
X200252381Y-124600000D02*
X199252381Y-124600000D01*
X199395238Y-124695238D01*
X199490476Y-124790476D01*
X199538095Y-124885714D01*
X192752381Y-125466666D02*
X192276190Y-125800000D01*
X192752381Y-126038095D02*
X191752381Y-126038095D01*
X191752381Y-125657142D01*
X191800000Y-125561904D01*
X191847619Y-125514285D01*
X191942857Y-125466666D01*
X192085714Y-125466666D01*
X192180952Y-125514285D01*
X192228571Y-125561904D01*
X192276190Y-125657142D01*
X192276190Y-126038095D01*
X192085714Y-124609523D02*
X192752381Y-124609523D01*
X191704762Y-124847619D02*
X192419048Y-125085714D01*
X192419048Y-124466666D01*
X200152381Y-136338095D02*
X199152381Y-136338095D01*
X199152381Y-136100000D01*
X199200000Y-135957142D01*
X199295238Y-135861904D01*
X199390476Y-135814285D01*
X199580952Y-135766666D01*
X199723810Y-135766666D01*
X199914286Y-135814285D01*
X200009524Y-135861904D01*
X200104762Y-135957142D01*
X200152381Y-136100000D01*
X200152381Y-136338095D01*
X200152381Y-134814285D02*
X200152381Y-135385714D01*
X200152381Y-135100000D02*
X199152381Y-135100000D01*
X199295238Y-135195238D01*
X199390476Y-135290476D01*
X199438095Y-135385714D01*
X194985714Y-138942857D02*
X194985714Y-139914286D01*
X195042857Y-140028571D01*
X195100000Y-140085714D01*
X195214286Y-140142857D01*
X195442857Y-140142857D01*
X195557143Y-140085714D01*
X195614286Y-140028571D01*
X195671429Y-139914286D01*
X195671429Y-138942857D01*
X196185714Y-139057143D02*
X196242857Y-139000000D01*
X196357143Y-138942857D01*
X196642857Y-138942857D01*
X196757143Y-139000000D01*
X196814286Y-139057143D01*
X196871429Y-139171429D01*
X196871429Y-139285714D01*
X196814286Y-139457143D01*
X196128572Y-140142857D01*
X196871429Y-140142857D01*
X195228572Y-130842857D02*
X196028572Y-132042857D01*
X196028572Y-130842857D02*
X195228572Y-132042857D01*
X197114286Y-132042857D02*
X196428571Y-132042857D01*
X196771429Y-132042857D02*
X196771429Y-130842857D01*
X196657143Y-131014286D01*
X196542857Y-131128571D01*
X196428571Y-131185714D01*
X181728572Y-130842857D02*
X182528572Y-132042857D01*
X182528572Y-130842857D02*
X181728572Y-132042857D01*
X183614286Y-132042857D02*
X182928571Y-132042857D01*
X183271429Y-132042857D02*
X183271429Y-130842857D01*
X183157143Y-131014286D01*
X183042857Y-131128571D01*
X182928571Y-131185714D01*
X181485714Y-138942857D02*
X181485714Y-139914286D01*
X181542857Y-140028571D01*
X181600000Y-140085714D01*
X181714286Y-140142857D01*
X181942857Y-140142857D01*
X182057143Y-140085714D01*
X182114286Y-140028571D01*
X182171429Y-139914286D01*
X182171429Y-138942857D01*
X182685714Y-139057143D02*
X182742857Y-139000000D01*
X182857143Y-138942857D01*
X183142857Y-138942857D01*
X183257143Y-139000000D01*
X183314286Y-139057143D01*
X183371429Y-139171429D01*
X183371429Y-139285714D01*
X183314286Y-139457143D01*
X182628572Y-140142857D01*
X183371429Y-140142857D01*
X186652381Y-136338095D02*
X185652381Y-136338095D01*
X185652381Y-136100000D01*
X185700000Y-135957142D01*
X185795238Y-135861904D01*
X185890476Y-135814285D01*
X186080952Y-135766666D01*
X186223810Y-135766666D01*
X186414286Y-135814285D01*
X186509524Y-135861904D01*
X186604762Y-135957142D01*
X186652381Y-136100000D01*
X186652381Y-136338095D01*
X186652381Y-134814285D02*
X186652381Y-135385714D01*
X186652381Y-135100000D02*
X185652381Y-135100000D01*
X185795238Y-135195238D01*
X185890476Y-135290476D01*
X185938095Y-135385714D01*
X179252381Y-125466666D02*
X178776190Y-125800000D01*
X179252381Y-126038095D02*
X178252381Y-126038095D01*
X178252381Y-125657142D01*
X178300000Y-125561904D01*
X178347619Y-125514285D01*
X178442857Y-125466666D01*
X178585714Y-125466666D01*
X178680952Y-125514285D01*
X178728571Y-125561904D01*
X178776190Y-125657142D01*
X178776190Y-126038095D01*
X178585714Y-124609523D02*
X179252381Y-124609523D01*
X178204762Y-124847619D02*
X178919048Y-125085714D01*
X178919048Y-124466666D01*
X186752381Y-125266666D02*
X186276190Y-125600000D01*
X186752381Y-125838095D02*
X185752381Y-125838095D01*
X185752381Y-125457142D01*
X185800000Y-125361904D01*
X185847619Y-125314285D01*
X185942857Y-125266666D01*
X186085714Y-125266666D01*
X186180952Y-125314285D01*
X186228571Y-125361904D01*
X186276190Y-125457142D01*
X186276190Y-125838095D01*
X186752381Y-124314285D02*
X186752381Y-124885714D01*
X186752381Y-124600000D02*
X185752381Y-124600000D01*
X185895238Y-124695238D01*
X185990476Y-124790476D01*
X186038095Y-124885714D01*
X178957143Y-136366666D02*
X179004762Y-136414285D01*
X179052381Y-136557142D01*
X179052381Y-136652380D01*
X179004762Y-136795238D01*
X178909524Y-136890476D01*
X178814286Y-136938095D01*
X178623810Y-136985714D01*
X178480952Y-136985714D01*
X178290476Y-136938095D01*
X178195238Y-136890476D01*
X178100000Y-136795238D01*
X178052381Y-136652380D01*
X178052381Y-136557142D01*
X178100000Y-136414285D01*
X178147619Y-136366666D01*
X179052381Y-135414285D02*
X179052381Y-135985714D01*
X179052381Y-135700000D02*
X178052381Y-135700000D01*
X178195238Y-135795238D01*
X178290476Y-135890476D01*
X178338095Y-135985714D01*
X177737857Y-129714286D02*
X178709286Y-129714286D01*
X178823571Y-129657143D01*
X178880714Y-129600000D01*
X178937857Y-129485714D01*
X178937857Y-129257143D01*
X178880714Y-129142857D01*
X178823571Y-129085714D01*
X178709286Y-129028571D01*
X177737857Y-129028571D01*
X178937857Y-127828571D02*
X178937857Y-128514286D01*
X178937857Y-128171428D02*
X177737857Y-128171428D01*
X177909286Y-128285714D01*
X178023571Y-128400000D01*
X178080714Y-128514286D01*
X177737857Y-103714286D02*
X178709286Y-103714286D01*
X178823571Y-103657143D01*
X178880714Y-103600000D01*
X178937857Y-103485714D01*
X178937857Y-103257143D01*
X178880714Y-103142857D01*
X178823571Y-103085714D01*
X178709286Y-103028571D01*
X177737857Y-103028571D01*
X178937857Y-101828571D02*
X178937857Y-102514286D01*
X178937857Y-102171428D02*
X177737857Y-102171428D01*
X177909286Y-102285714D01*
X178023571Y-102400000D01*
X178080714Y-102514286D01*
X178957143Y-110366666D02*
X179004762Y-110414285D01*
X179052381Y-110557142D01*
X179052381Y-110652380D01*
X179004762Y-110795238D01*
X178909524Y-110890476D01*
X178814286Y-110938095D01*
X178623810Y-110985714D01*
X178480952Y-110985714D01*
X178290476Y-110938095D01*
X178195238Y-110890476D01*
X178100000Y-110795238D01*
X178052381Y-110652380D01*
X178052381Y-110557142D01*
X178100000Y-110414285D01*
X178147619Y-110366666D01*
X179052381Y-109414285D02*
X179052381Y-109985714D01*
X179052381Y-109700000D02*
X178052381Y-109700000D01*
X178195238Y-109795238D01*
X178290476Y-109890476D01*
X178338095Y-109985714D01*
X186752381Y-99266666D02*
X186276190Y-99600000D01*
X186752381Y-99838095D02*
X185752381Y-99838095D01*
X185752381Y-99457142D01*
X185800000Y-99361904D01*
X185847619Y-99314285D01*
X185942857Y-99266666D01*
X186085714Y-99266666D01*
X186180952Y-99314285D01*
X186228571Y-99361904D01*
X186276190Y-99457142D01*
X186276190Y-99838095D01*
X186752381Y-98314285D02*
X186752381Y-98885714D01*
X186752381Y-98600000D02*
X185752381Y-98600000D01*
X185895238Y-98695238D01*
X185990476Y-98790476D01*
X186038095Y-98885714D01*
X179252381Y-99466666D02*
X178776190Y-99800000D01*
X179252381Y-100038095D02*
X178252381Y-100038095D01*
X178252381Y-99657142D01*
X178300000Y-99561904D01*
X178347619Y-99514285D01*
X178442857Y-99466666D01*
X178585714Y-99466666D01*
X178680952Y-99514285D01*
X178728571Y-99561904D01*
X178776190Y-99657142D01*
X178776190Y-100038095D01*
X178585714Y-98609523D02*
X179252381Y-98609523D01*
X178204762Y-98847619D02*
X178919048Y-99085714D01*
X178919048Y-98466666D01*
X186652381Y-110338095D02*
X185652381Y-110338095D01*
X185652381Y-110100000D01*
X185700000Y-109957142D01*
X185795238Y-109861904D01*
X185890476Y-109814285D01*
X186080952Y-109766666D01*
X186223810Y-109766666D01*
X186414286Y-109814285D01*
X186509524Y-109861904D01*
X186604762Y-109957142D01*
X186652381Y-110100000D01*
X186652381Y-110338095D01*
X186652381Y-108814285D02*
X186652381Y-109385714D01*
X186652381Y-109100000D02*
X185652381Y-109100000D01*
X185795238Y-109195238D01*
X185890476Y-109290476D01*
X185938095Y-109385714D01*
X181485714Y-112942857D02*
X181485714Y-113914286D01*
X181542857Y-114028571D01*
X181600000Y-114085714D01*
X181714286Y-114142857D01*
X181942857Y-114142857D01*
X182057143Y-114085714D01*
X182114286Y-114028571D01*
X182171429Y-113914286D01*
X182171429Y-112942857D01*
X182685714Y-113057143D02*
X182742857Y-113000000D01*
X182857143Y-112942857D01*
X183142857Y-112942857D01*
X183257143Y-113000000D01*
X183314286Y-113057143D01*
X183371429Y-113171429D01*
X183371429Y-113285714D01*
X183314286Y-113457143D01*
X182628572Y-114142857D01*
X183371429Y-114142857D01*
X181728572Y-104842857D02*
X182528572Y-106042857D01*
X182528572Y-104842857D02*
X181728572Y-106042857D01*
X183614286Y-106042857D02*
X182928571Y-106042857D01*
X183271429Y-106042857D02*
X183271429Y-104842857D01*
X183157143Y-105014286D01*
X183042857Y-105128571D01*
X182928571Y-105185714D01*
X127728572Y-104842857D02*
X128528572Y-106042857D01*
X128528572Y-104842857D02*
X127728572Y-106042857D01*
X129614286Y-106042857D02*
X128928571Y-106042857D01*
X129271429Y-106042857D02*
X129271429Y-104842857D01*
X129157143Y-105014286D01*
X129042857Y-105128571D01*
X128928571Y-105185714D01*
X127485714Y-112942857D02*
X127485714Y-113914286D01*
X127542857Y-114028571D01*
X127600000Y-114085714D01*
X127714286Y-114142857D01*
X127942857Y-114142857D01*
X128057143Y-114085714D01*
X128114286Y-114028571D01*
X128171429Y-113914286D01*
X128171429Y-112942857D01*
X128685714Y-113057143D02*
X128742857Y-113000000D01*
X128857143Y-112942857D01*
X129142857Y-112942857D01*
X129257143Y-113000000D01*
X129314286Y-113057143D01*
X129371429Y-113171429D01*
X129371429Y-113285714D01*
X129314286Y-113457143D01*
X128628572Y-114142857D01*
X129371429Y-114142857D01*
X132652381Y-110338095D02*
X131652381Y-110338095D01*
X131652381Y-110100000D01*
X131700000Y-109957142D01*
X131795238Y-109861904D01*
X131890476Y-109814285D01*
X132080952Y-109766666D01*
X132223810Y-109766666D01*
X132414286Y-109814285D01*
X132509524Y-109861904D01*
X132604762Y-109957142D01*
X132652381Y-110100000D01*
X132652381Y-110338095D01*
X132652381Y-108814285D02*
X132652381Y-109385714D01*
X132652381Y-109100000D02*
X131652381Y-109100000D01*
X131795238Y-109195238D01*
X131890476Y-109290476D01*
X131938095Y-109385714D01*
X125252381Y-99466666D02*
X124776190Y-99800000D01*
X125252381Y-100038095D02*
X124252381Y-100038095D01*
X124252381Y-99657142D01*
X124300000Y-99561904D01*
X124347619Y-99514285D01*
X124442857Y-99466666D01*
X124585714Y-99466666D01*
X124680952Y-99514285D01*
X124728571Y-99561904D01*
X124776190Y-99657142D01*
X124776190Y-100038095D01*
X124585714Y-98609523D02*
X125252381Y-98609523D01*
X124204762Y-98847619D02*
X124919048Y-99085714D01*
X124919048Y-98466666D01*
X132752381Y-99266666D02*
X132276190Y-99600000D01*
X132752381Y-99838095D02*
X131752381Y-99838095D01*
X131752381Y-99457142D01*
X131800000Y-99361904D01*
X131847619Y-99314285D01*
X131942857Y-99266666D01*
X132085714Y-99266666D01*
X132180952Y-99314285D01*
X132228571Y-99361904D01*
X132276190Y-99457142D01*
X132276190Y-99838095D01*
X132752381Y-98314285D02*
X132752381Y-98885714D01*
X132752381Y-98600000D02*
X131752381Y-98600000D01*
X131895238Y-98695238D01*
X131990476Y-98790476D01*
X132038095Y-98885714D01*
X124957143Y-110366666D02*
X125004762Y-110414285D01*
X125052381Y-110557142D01*
X125052381Y-110652380D01*
X125004762Y-110795238D01*
X124909524Y-110890476D01*
X124814286Y-110938095D01*
X124623810Y-110985714D01*
X124480952Y-110985714D01*
X124290476Y-110938095D01*
X124195238Y-110890476D01*
X124100000Y-110795238D01*
X124052381Y-110652380D01*
X124052381Y-110557142D01*
X124100000Y-110414285D01*
X124147619Y-110366666D01*
X125052381Y-109414285D02*
X125052381Y-109985714D01*
X125052381Y-109700000D02*
X124052381Y-109700000D01*
X124195238Y-109795238D01*
X124290476Y-109890476D01*
X124338095Y-109985714D01*
X123737857Y-103714286D02*
X124709286Y-103714286D01*
X124823571Y-103657143D01*
X124880714Y-103600000D01*
X124937857Y-103485714D01*
X124937857Y-103257143D01*
X124880714Y-103142857D01*
X124823571Y-103085714D01*
X124709286Y-103028571D01*
X123737857Y-103028571D01*
X124937857Y-101828571D02*
X124937857Y-102514286D01*
X124937857Y-102171428D02*
X123737857Y-102171428D01*
X123909286Y-102285714D01*
X124023571Y-102400000D01*
X124080714Y-102514286D01*
X123737857Y-129714286D02*
X124709286Y-129714286D01*
X124823571Y-129657143D01*
X124880714Y-129600000D01*
X124937857Y-129485714D01*
X124937857Y-129257143D01*
X124880714Y-129142857D01*
X124823571Y-129085714D01*
X124709286Y-129028571D01*
X123737857Y-129028571D01*
X124937857Y-127828571D02*
X124937857Y-128514286D01*
X124937857Y-128171428D02*
X123737857Y-128171428D01*
X123909286Y-128285714D01*
X124023571Y-128400000D01*
X124080714Y-128514286D01*
X124957143Y-136366666D02*
X125004762Y-136414285D01*
X125052381Y-136557142D01*
X125052381Y-136652380D01*
X125004762Y-136795238D01*
X124909524Y-136890476D01*
X124814286Y-136938095D01*
X124623810Y-136985714D01*
X124480952Y-136985714D01*
X124290476Y-136938095D01*
X124195238Y-136890476D01*
X124100000Y-136795238D01*
X124052381Y-136652380D01*
X124052381Y-136557142D01*
X124100000Y-136414285D01*
X124147619Y-136366666D01*
X125052381Y-135414285D02*
X125052381Y-135985714D01*
X125052381Y-135700000D02*
X124052381Y-135700000D01*
X124195238Y-135795238D01*
X124290476Y-135890476D01*
X124338095Y-135985714D01*
X132752381Y-125266666D02*
X132276190Y-125600000D01*
X132752381Y-125838095D02*
X131752381Y-125838095D01*
X131752381Y-125457142D01*
X131800000Y-125361904D01*
X131847619Y-125314285D01*
X131942857Y-125266666D01*
X132085714Y-125266666D01*
X132180952Y-125314285D01*
X132228571Y-125361904D01*
X132276190Y-125457142D01*
X132276190Y-125838095D01*
X132752381Y-124314285D02*
X132752381Y-124885714D01*
X132752381Y-124600000D02*
X131752381Y-124600000D01*
X131895238Y-124695238D01*
X131990476Y-124790476D01*
X132038095Y-124885714D01*
X125252381Y-125466666D02*
X124776190Y-125800000D01*
X125252381Y-126038095D02*
X124252381Y-126038095D01*
X124252381Y-125657142D01*
X124300000Y-125561904D01*
X124347619Y-125514285D01*
X124442857Y-125466666D01*
X124585714Y-125466666D01*
X124680952Y-125514285D01*
X124728571Y-125561904D01*
X124776190Y-125657142D01*
X124776190Y-126038095D01*
X124585714Y-124609523D02*
X125252381Y-124609523D01*
X124204762Y-124847619D02*
X124919048Y-125085714D01*
X124919048Y-124466666D01*
X132652381Y-136338095D02*
X131652381Y-136338095D01*
X131652381Y-136100000D01*
X131700000Y-135957142D01*
X131795238Y-135861904D01*
X131890476Y-135814285D01*
X132080952Y-135766666D01*
X132223810Y-135766666D01*
X132414286Y-135814285D01*
X132509524Y-135861904D01*
X132604762Y-135957142D01*
X132652381Y-136100000D01*
X132652381Y-136338095D01*
X132652381Y-134814285D02*
X132652381Y-135385714D01*
X132652381Y-135100000D02*
X131652381Y-135100000D01*
X131795238Y-135195238D01*
X131890476Y-135290476D01*
X131938095Y-135385714D01*
X127485714Y-138942857D02*
X127485714Y-139914286D01*
X127542857Y-140028571D01*
X127600000Y-140085714D01*
X127714286Y-140142857D01*
X127942857Y-140142857D01*
X128057143Y-140085714D01*
X128114286Y-140028571D01*
X128171429Y-139914286D01*
X128171429Y-138942857D01*
X128685714Y-139057143D02*
X128742857Y-139000000D01*
X128857143Y-138942857D01*
X129142857Y-138942857D01*
X129257143Y-139000000D01*
X129314286Y-139057143D01*
X129371429Y-139171429D01*
X129371429Y-139285714D01*
X129314286Y-139457143D01*
X128628572Y-140142857D01*
X129371429Y-140142857D01*
X127728572Y-130842857D02*
X128528572Y-132042857D01*
X128528572Y-130842857D02*
X127728572Y-132042857D01*
X129614286Y-132042857D02*
X128928571Y-132042857D01*
X129271429Y-132042857D02*
X129271429Y-130842857D01*
X129157143Y-131014286D01*
X129042857Y-131128571D01*
X128928571Y-131185714D01*
X141228572Y-130842857D02*
X142028572Y-132042857D01*
X142028572Y-130842857D02*
X141228572Y-132042857D01*
X143114286Y-132042857D02*
X142428571Y-132042857D01*
X142771429Y-132042857D02*
X142771429Y-130842857D01*
X142657143Y-131014286D01*
X142542857Y-131128571D01*
X142428571Y-131185714D01*
X140985714Y-138942857D02*
X140985714Y-139914286D01*
X141042857Y-140028571D01*
X141100000Y-140085714D01*
X141214286Y-140142857D01*
X141442857Y-140142857D01*
X141557143Y-140085714D01*
X141614286Y-140028571D01*
X141671429Y-139914286D01*
X141671429Y-138942857D01*
X142185714Y-139057143D02*
X142242857Y-139000000D01*
X142357143Y-138942857D01*
X142642857Y-138942857D01*
X142757143Y-139000000D01*
X142814286Y-139057143D01*
X142871429Y-139171429D01*
X142871429Y-139285714D01*
X142814286Y-139457143D01*
X142128572Y-140142857D01*
X142871429Y-140142857D01*
X146152381Y-136338095D02*
X145152381Y-136338095D01*
X145152381Y-136100000D01*
X145200000Y-135957142D01*
X145295238Y-135861904D01*
X145390476Y-135814285D01*
X145580952Y-135766666D01*
X145723810Y-135766666D01*
X145914286Y-135814285D01*
X146009524Y-135861904D01*
X146104762Y-135957142D01*
X146152381Y-136100000D01*
X146152381Y-136338095D01*
X146152381Y-134814285D02*
X146152381Y-135385714D01*
X146152381Y-135100000D02*
X145152381Y-135100000D01*
X145295238Y-135195238D01*
X145390476Y-135290476D01*
X145438095Y-135385714D01*
X138752381Y-125466666D02*
X138276190Y-125800000D01*
X138752381Y-126038095D02*
X137752381Y-126038095D01*
X137752381Y-125657142D01*
X137800000Y-125561904D01*
X137847619Y-125514285D01*
X137942857Y-125466666D01*
X138085714Y-125466666D01*
X138180952Y-125514285D01*
X138228571Y-125561904D01*
X138276190Y-125657142D01*
X138276190Y-126038095D01*
X138085714Y-124609523D02*
X138752381Y-124609523D01*
X137704762Y-124847619D02*
X138419048Y-125085714D01*
X138419048Y-124466666D01*
X146252381Y-125266666D02*
X145776190Y-125600000D01*
X146252381Y-125838095D02*
X145252381Y-125838095D01*
X145252381Y-125457142D01*
X145300000Y-125361904D01*
X145347619Y-125314285D01*
X145442857Y-125266666D01*
X145585714Y-125266666D01*
X145680952Y-125314285D01*
X145728571Y-125361904D01*
X145776190Y-125457142D01*
X145776190Y-125838095D01*
X146252381Y-124314285D02*
X146252381Y-124885714D01*
X146252381Y-124600000D02*
X145252381Y-124600000D01*
X145395238Y-124695238D01*
X145490476Y-124790476D01*
X145538095Y-124885714D01*
X138457143Y-136366666D02*
X138504762Y-136414285D01*
X138552381Y-136557142D01*
X138552381Y-136652380D01*
X138504762Y-136795238D01*
X138409524Y-136890476D01*
X138314286Y-136938095D01*
X138123810Y-136985714D01*
X137980952Y-136985714D01*
X137790476Y-136938095D01*
X137695238Y-136890476D01*
X137600000Y-136795238D01*
X137552381Y-136652380D01*
X137552381Y-136557142D01*
X137600000Y-136414285D01*
X137647619Y-136366666D01*
X138552381Y-135414285D02*
X138552381Y-135985714D01*
X138552381Y-135700000D02*
X137552381Y-135700000D01*
X137695238Y-135795238D01*
X137790476Y-135890476D01*
X137838095Y-135985714D01*
X137237857Y-129714286D02*
X138209286Y-129714286D01*
X138323571Y-129657143D01*
X138380714Y-129600000D01*
X138437857Y-129485714D01*
X138437857Y-129257143D01*
X138380714Y-129142857D01*
X138323571Y-129085714D01*
X138209286Y-129028571D01*
X137237857Y-129028571D01*
X138437857Y-127828571D02*
X138437857Y-128514286D01*
X138437857Y-128171428D02*
X137237857Y-128171428D01*
X137409286Y-128285714D01*
X137523571Y-128400000D01*
X137580714Y-128514286D01*
X137237857Y-103714286D02*
X138209286Y-103714286D01*
X138323571Y-103657143D01*
X138380714Y-103600000D01*
X138437857Y-103485714D01*
X138437857Y-103257143D01*
X138380714Y-103142857D01*
X138323571Y-103085714D01*
X138209286Y-103028571D01*
X137237857Y-103028571D01*
X138437857Y-101828571D02*
X138437857Y-102514286D01*
X138437857Y-102171428D02*
X137237857Y-102171428D01*
X137409286Y-102285714D01*
X137523571Y-102400000D01*
X137580714Y-102514286D01*
X138457143Y-110366666D02*
X138504762Y-110414285D01*
X138552381Y-110557142D01*
X138552381Y-110652380D01*
X138504762Y-110795238D01*
X138409524Y-110890476D01*
X138314286Y-110938095D01*
X138123810Y-110985714D01*
X137980952Y-110985714D01*
X137790476Y-110938095D01*
X137695238Y-110890476D01*
X137600000Y-110795238D01*
X137552381Y-110652380D01*
X137552381Y-110557142D01*
X137600000Y-110414285D01*
X137647619Y-110366666D01*
X138552381Y-109414285D02*
X138552381Y-109985714D01*
X138552381Y-109700000D02*
X137552381Y-109700000D01*
X137695238Y-109795238D01*
X137790476Y-109890476D01*
X137838095Y-109985714D01*
X146252381Y-99266666D02*
X145776190Y-99600000D01*
X146252381Y-99838095D02*
X145252381Y-99838095D01*
X145252381Y-99457142D01*
X145300000Y-99361904D01*
X145347619Y-99314285D01*
X145442857Y-99266666D01*
X145585714Y-99266666D01*
X145680952Y-99314285D01*
X145728571Y-99361904D01*
X145776190Y-99457142D01*
X145776190Y-99838095D01*
X146252381Y-98314285D02*
X146252381Y-98885714D01*
X146252381Y-98600000D02*
X145252381Y-98600000D01*
X145395238Y-98695238D01*
X145490476Y-98790476D01*
X145538095Y-98885714D01*
X138752381Y-99466666D02*
X138276190Y-99800000D01*
X138752381Y-100038095D02*
X137752381Y-100038095D01*
X137752381Y-99657142D01*
X137800000Y-99561904D01*
X137847619Y-99514285D01*
X137942857Y-99466666D01*
X138085714Y-99466666D01*
X138180952Y-99514285D01*
X138228571Y-99561904D01*
X138276190Y-99657142D01*
X138276190Y-100038095D01*
X138085714Y-98609523D02*
X138752381Y-98609523D01*
X137704762Y-98847619D02*
X138419048Y-99085714D01*
X138419048Y-98466666D01*
X146152381Y-110338095D02*
X145152381Y-110338095D01*
X145152381Y-110100000D01*
X145200000Y-109957142D01*
X145295238Y-109861904D01*
X145390476Y-109814285D01*
X145580952Y-109766666D01*
X145723810Y-109766666D01*
X145914286Y-109814285D01*
X146009524Y-109861904D01*
X146104762Y-109957142D01*
X146152381Y-110100000D01*
X146152381Y-110338095D01*
X146152381Y-108814285D02*
X146152381Y-109385714D01*
X146152381Y-109100000D02*
X145152381Y-109100000D01*
X145295238Y-109195238D01*
X145390476Y-109290476D01*
X145438095Y-109385714D01*
X140985714Y-112942857D02*
X140985714Y-113914286D01*
X141042857Y-114028571D01*
X141100000Y-114085714D01*
X141214286Y-114142857D01*
X141442857Y-114142857D01*
X141557143Y-114085714D01*
X141614286Y-114028571D01*
X141671429Y-113914286D01*
X141671429Y-112942857D01*
X142185714Y-113057143D02*
X142242857Y-113000000D01*
X142357143Y-112942857D01*
X142642857Y-112942857D01*
X142757143Y-113000000D01*
X142814286Y-113057143D01*
X142871429Y-113171429D01*
X142871429Y-113285714D01*
X142814286Y-113457143D01*
X142128572Y-114142857D01*
X142871429Y-114142857D01*
X141228572Y-104842857D02*
X142028572Y-106042857D01*
X142028572Y-104842857D02*
X141228572Y-106042857D01*
X143114286Y-106042857D02*
X142428571Y-106042857D01*
X142771429Y-106042857D02*
X142771429Y-104842857D01*
X142657143Y-105014286D01*
X142542857Y-105128571D01*
X142428571Y-105185714D01*
X154728572Y-104842857D02*
X155528572Y-106042857D01*
X155528572Y-104842857D02*
X154728572Y-106042857D01*
X156614286Y-106042857D02*
X155928571Y-106042857D01*
X156271429Y-106042857D02*
X156271429Y-104842857D01*
X156157143Y-105014286D01*
X156042857Y-105128571D01*
X155928571Y-105185714D01*
X154485714Y-112942857D02*
X154485714Y-113914286D01*
X154542857Y-114028571D01*
X154600000Y-114085714D01*
X154714286Y-114142857D01*
X154942857Y-114142857D01*
X155057143Y-114085714D01*
X155114286Y-114028571D01*
X155171429Y-113914286D01*
X155171429Y-112942857D01*
X155685714Y-113057143D02*
X155742857Y-113000000D01*
X155857143Y-112942857D01*
X156142857Y-112942857D01*
X156257143Y-113000000D01*
X156314286Y-113057143D01*
X156371429Y-113171429D01*
X156371429Y-113285714D01*
X156314286Y-113457143D01*
X155628572Y-114142857D01*
X156371429Y-114142857D01*
X159652381Y-110338095D02*
X158652381Y-110338095D01*
X158652381Y-110100000D01*
X158700000Y-109957142D01*
X158795238Y-109861904D01*
X158890476Y-109814285D01*
X159080952Y-109766666D01*
X159223810Y-109766666D01*
X159414286Y-109814285D01*
X159509524Y-109861904D01*
X159604762Y-109957142D01*
X159652381Y-110100000D01*
X159652381Y-110338095D01*
X159652381Y-108814285D02*
X159652381Y-109385714D01*
X159652381Y-109100000D02*
X158652381Y-109100000D01*
X158795238Y-109195238D01*
X158890476Y-109290476D01*
X158938095Y-109385714D01*
X152252381Y-99466666D02*
X151776190Y-99800000D01*
X152252381Y-100038095D02*
X151252381Y-100038095D01*
X151252381Y-99657142D01*
X151300000Y-99561904D01*
X151347619Y-99514285D01*
X151442857Y-99466666D01*
X151585714Y-99466666D01*
X151680952Y-99514285D01*
X151728571Y-99561904D01*
X151776190Y-99657142D01*
X151776190Y-100038095D01*
X151585714Y-98609523D02*
X152252381Y-98609523D01*
X151204762Y-98847619D02*
X151919048Y-99085714D01*
X151919048Y-98466666D01*
X159752381Y-99266666D02*
X159276190Y-99600000D01*
X159752381Y-99838095D02*
X158752381Y-99838095D01*
X158752381Y-99457142D01*
X158800000Y-99361904D01*
X158847619Y-99314285D01*
X158942857Y-99266666D01*
X159085714Y-99266666D01*
X159180952Y-99314285D01*
X159228571Y-99361904D01*
X159276190Y-99457142D01*
X159276190Y-99838095D01*
X159752381Y-98314285D02*
X159752381Y-98885714D01*
X159752381Y-98600000D02*
X158752381Y-98600000D01*
X158895238Y-98695238D01*
X158990476Y-98790476D01*
X159038095Y-98885714D01*
X151957143Y-110366666D02*
X152004762Y-110414285D01*
X152052381Y-110557142D01*
X152052381Y-110652380D01*
X152004762Y-110795238D01*
X151909524Y-110890476D01*
X151814286Y-110938095D01*
X151623810Y-110985714D01*
X151480952Y-110985714D01*
X151290476Y-110938095D01*
X151195238Y-110890476D01*
X151100000Y-110795238D01*
X151052381Y-110652380D01*
X151052381Y-110557142D01*
X151100000Y-110414285D01*
X151147619Y-110366666D01*
X152052381Y-109414285D02*
X152052381Y-109985714D01*
X152052381Y-109700000D02*
X151052381Y-109700000D01*
X151195238Y-109795238D01*
X151290476Y-109890476D01*
X151338095Y-109985714D01*
X150737857Y-103714286D02*
X151709286Y-103714286D01*
X151823571Y-103657143D01*
X151880714Y-103600000D01*
X151937857Y-103485714D01*
X151937857Y-103257143D01*
X151880714Y-103142857D01*
X151823571Y-103085714D01*
X151709286Y-103028571D01*
X150737857Y-103028571D01*
X151937857Y-101828571D02*
X151937857Y-102514286D01*
X151937857Y-102171428D02*
X150737857Y-102171428D01*
X150909286Y-102285714D01*
X151023571Y-102400000D01*
X151080714Y-102514286D01*
X150737857Y-129714286D02*
X151709286Y-129714286D01*
X151823571Y-129657143D01*
X151880714Y-129600000D01*
X151937857Y-129485714D01*
X151937857Y-129257143D01*
X151880714Y-129142857D01*
X151823571Y-129085714D01*
X151709286Y-129028571D01*
X150737857Y-129028571D01*
X151937857Y-127828571D02*
X151937857Y-128514286D01*
X151937857Y-128171428D02*
X150737857Y-128171428D01*
X150909286Y-128285714D01*
X151023571Y-128400000D01*
X151080714Y-128514286D01*
X151957143Y-136366666D02*
X152004762Y-136414285D01*
X152052381Y-136557142D01*
X152052381Y-136652380D01*
X152004762Y-136795238D01*
X151909524Y-136890476D01*
X151814286Y-136938095D01*
X151623810Y-136985714D01*
X151480952Y-136985714D01*
X151290476Y-136938095D01*
X151195238Y-136890476D01*
X151100000Y-136795238D01*
X151052381Y-136652380D01*
X151052381Y-136557142D01*
X151100000Y-136414285D01*
X151147619Y-136366666D01*
X152052381Y-135414285D02*
X152052381Y-135985714D01*
X152052381Y-135700000D02*
X151052381Y-135700000D01*
X151195238Y-135795238D01*
X151290476Y-135890476D01*
X151338095Y-135985714D01*
X159752381Y-125266666D02*
X159276190Y-125600000D01*
X159752381Y-125838095D02*
X158752381Y-125838095D01*
X158752381Y-125457142D01*
X158800000Y-125361904D01*
X158847619Y-125314285D01*
X158942857Y-125266666D01*
X159085714Y-125266666D01*
X159180952Y-125314285D01*
X159228571Y-125361904D01*
X159276190Y-125457142D01*
X159276190Y-125838095D01*
X159752381Y-124314285D02*
X159752381Y-124885714D01*
X159752381Y-124600000D02*
X158752381Y-124600000D01*
X158895238Y-124695238D01*
X158990476Y-124790476D01*
X159038095Y-124885714D01*
X152252381Y-125466666D02*
X151776190Y-125800000D01*
X152252381Y-126038095D02*
X151252381Y-126038095D01*
X151252381Y-125657142D01*
X151300000Y-125561904D01*
X151347619Y-125514285D01*
X151442857Y-125466666D01*
X151585714Y-125466666D01*
X151680952Y-125514285D01*
X151728571Y-125561904D01*
X151776190Y-125657142D01*
X151776190Y-126038095D01*
X151585714Y-124609523D02*
X152252381Y-124609523D01*
X151204762Y-124847619D02*
X151919048Y-125085714D01*
X151919048Y-124466666D01*
X159652381Y-136338095D02*
X158652381Y-136338095D01*
X158652381Y-136100000D01*
X158700000Y-135957142D01*
X158795238Y-135861904D01*
X158890476Y-135814285D01*
X159080952Y-135766666D01*
X159223810Y-135766666D01*
X159414286Y-135814285D01*
X159509524Y-135861904D01*
X159604762Y-135957142D01*
X159652381Y-136100000D01*
X159652381Y-136338095D01*
X159652381Y-134814285D02*
X159652381Y-135385714D01*
X159652381Y-135100000D02*
X158652381Y-135100000D01*
X158795238Y-135195238D01*
X158890476Y-135290476D01*
X158938095Y-135385714D01*
X154485714Y-138942857D02*
X154485714Y-139914286D01*
X154542857Y-140028571D01*
X154600000Y-140085714D01*
X154714286Y-140142857D01*
X154942857Y-140142857D01*
X155057143Y-140085714D01*
X155114286Y-140028571D01*
X155171429Y-139914286D01*
X155171429Y-138942857D01*
X155685714Y-139057143D02*
X155742857Y-139000000D01*
X155857143Y-138942857D01*
X156142857Y-138942857D01*
X156257143Y-139000000D01*
X156314286Y-139057143D01*
X156371429Y-139171429D01*
X156371429Y-139285714D01*
X156314286Y-139457143D01*
X155628572Y-140142857D01*
X156371429Y-140142857D01*
X154728572Y-130842857D02*
X155528572Y-132042857D01*
X155528572Y-130842857D02*
X154728572Y-132042857D01*
X156614286Y-132042857D02*
X155928571Y-132042857D01*
X156271429Y-132042857D02*
X156271429Y-130842857D01*
X156157143Y-131014286D01*
X156042857Y-131128571D01*
X155928571Y-131185714D01*
X114228572Y-104842857D02*
X115028572Y-106042857D01*
X115028572Y-104842857D02*
X114228572Y-106042857D01*
X116114286Y-106042857D02*
X115428571Y-106042857D01*
X115771429Y-106042857D02*
X115771429Y-104842857D01*
X115657143Y-105014286D01*
X115542857Y-105128571D01*
X115428571Y-105185714D01*
X113985714Y-112942857D02*
X113985714Y-113914286D01*
X114042857Y-114028571D01*
X114100000Y-114085714D01*
X114214286Y-114142857D01*
X114442857Y-114142857D01*
X114557143Y-114085714D01*
X114614286Y-114028571D01*
X114671429Y-113914286D01*
X114671429Y-112942857D01*
X115185714Y-113057143D02*
X115242857Y-113000000D01*
X115357143Y-112942857D01*
X115642857Y-112942857D01*
X115757143Y-113000000D01*
X115814286Y-113057143D01*
X115871429Y-113171429D01*
X115871429Y-113285714D01*
X115814286Y-113457143D01*
X115128572Y-114142857D01*
X115871429Y-114142857D01*
X119152381Y-110338095D02*
X118152381Y-110338095D01*
X118152381Y-110100000D01*
X118200000Y-109957142D01*
X118295238Y-109861904D01*
X118390476Y-109814285D01*
X118580952Y-109766666D01*
X118723810Y-109766666D01*
X118914286Y-109814285D01*
X119009524Y-109861904D01*
X119104762Y-109957142D01*
X119152381Y-110100000D01*
X119152381Y-110338095D01*
X119152381Y-108814285D02*
X119152381Y-109385714D01*
X119152381Y-109100000D02*
X118152381Y-109100000D01*
X118295238Y-109195238D01*
X118390476Y-109290476D01*
X118438095Y-109385714D01*
X111752381Y-99466666D02*
X111276190Y-99800000D01*
X111752381Y-100038095D02*
X110752381Y-100038095D01*
X110752381Y-99657142D01*
X110800000Y-99561904D01*
X110847619Y-99514285D01*
X110942857Y-99466666D01*
X111085714Y-99466666D01*
X111180952Y-99514285D01*
X111228571Y-99561904D01*
X111276190Y-99657142D01*
X111276190Y-100038095D01*
X111085714Y-98609523D02*
X111752381Y-98609523D01*
X110704762Y-98847619D02*
X111419048Y-99085714D01*
X111419048Y-98466666D01*
X119252381Y-99266666D02*
X118776190Y-99600000D01*
X119252381Y-99838095D02*
X118252381Y-99838095D01*
X118252381Y-99457142D01*
X118300000Y-99361904D01*
X118347619Y-99314285D01*
X118442857Y-99266666D01*
X118585714Y-99266666D01*
X118680952Y-99314285D01*
X118728571Y-99361904D01*
X118776190Y-99457142D01*
X118776190Y-99838095D01*
X119252381Y-98314285D02*
X119252381Y-98885714D01*
X119252381Y-98600000D02*
X118252381Y-98600000D01*
X118395238Y-98695238D01*
X118490476Y-98790476D01*
X118538095Y-98885714D01*
X111457143Y-110366666D02*
X111504762Y-110414285D01*
X111552381Y-110557142D01*
X111552381Y-110652380D01*
X111504762Y-110795238D01*
X111409524Y-110890476D01*
X111314286Y-110938095D01*
X111123810Y-110985714D01*
X110980952Y-110985714D01*
X110790476Y-110938095D01*
X110695238Y-110890476D01*
X110600000Y-110795238D01*
X110552381Y-110652380D01*
X110552381Y-110557142D01*
X110600000Y-110414285D01*
X110647619Y-110366666D01*
X111552381Y-109414285D02*
X111552381Y-109985714D01*
X111552381Y-109700000D02*
X110552381Y-109700000D01*
X110695238Y-109795238D01*
X110790476Y-109890476D01*
X110838095Y-109985714D01*
X110237857Y-103714286D02*
X111209286Y-103714286D01*
X111323571Y-103657143D01*
X111380714Y-103600000D01*
X111437857Y-103485714D01*
X111437857Y-103257143D01*
X111380714Y-103142857D01*
X111323571Y-103085714D01*
X111209286Y-103028571D01*
X110237857Y-103028571D01*
X111437857Y-101828571D02*
X111437857Y-102514286D01*
X111437857Y-102171428D02*
X110237857Y-102171428D01*
X110409286Y-102285714D01*
X110523571Y-102400000D01*
X110580714Y-102514286D01*
X110237857Y-129714286D02*
X111209286Y-129714286D01*
X111323571Y-129657143D01*
X111380714Y-129600000D01*
X111437857Y-129485714D01*
X111437857Y-129257143D01*
X111380714Y-129142857D01*
X111323571Y-129085714D01*
X111209286Y-129028571D01*
X110237857Y-129028571D01*
X111437857Y-127828571D02*
X111437857Y-128514286D01*
X111437857Y-128171428D02*
X110237857Y-128171428D01*
X110409286Y-128285714D01*
X110523571Y-128400000D01*
X110580714Y-128514286D01*
X111457143Y-136366666D02*
X111504762Y-136414285D01*
X111552381Y-136557142D01*
X111552381Y-136652380D01*
X111504762Y-136795238D01*
X111409524Y-136890476D01*
X111314286Y-136938095D01*
X111123810Y-136985714D01*
X110980952Y-136985714D01*
X110790476Y-136938095D01*
X110695238Y-136890476D01*
X110600000Y-136795238D01*
X110552381Y-136652380D01*
X110552381Y-136557142D01*
X110600000Y-136414285D01*
X110647619Y-136366666D01*
X111552381Y-135414285D02*
X111552381Y-135985714D01*
X111552381Y-135700000D02*
X110552381Y-135700000D01*
X110695238Y-135795238D01*
X110790476Y-135890476D01*
X110838095Y-135985714D01*
X119252381Y-125266666D02*
X118776190Y-125600000D01*
X119252381Y-125838095D02*
X118252381Y-125838095D01*
X118252381Y-125457142D01*
X118300000Y-125361904D01*
X118347619Y-125314285D01*
X118442857Y-125266666D01*
X118585714Y-125266666D01*
X118680952Y-125314285D01*
X118728571Y-125361904D01*
X118776190Y-125457142D01*
X118776190Y-125838095D01*
X119252381Y-124314285D02*
X119252381Y-124885714D01*
X119252381Y-124600000D02*
X118252381Y-124600000D01*
X118395238Y-124695238D01*
X118490476Y-124790476D01*
X118538095Y-124885714D01*
X111752381Y-125466666D02*
X111276190Y-125800000D01*
X111752381Y-126038095D02*
X110752381Y-126038095D01*
X110752381Y-125657142D01*
X110800000Y-125561904D01*
X110847619Y-125514285D01*
X110942857Y-125466666D01*
X111085714Y-125466666D01*
X111180952Y-125514285D01*
X111228571Y-125561904D01*
X111276190Y-125657142D01*
X111276190Y-126038095D01*
X111085714Y-124609523D02*
X111752381Y-124609523D01*
X110704762Y-124847619D02*
X111419048Y-125085714D01*
X111419048Y-124466666D01*
X119152381Y-136338095D02*
X118152381Y-136338095D01*
X118152381Y-136100000D01*
X118200000Y-135957142D01*
X118295238Y-135861904D01*
X118390476Y-135814285D01*
X118580952Y-135766666D01*
X118723810Y-135766666D01*
X118914286Y-135814285D01*
X119009524Y-135861904D01*
X119104762Y-135957142D01*
X119152381Y-136100000D01*
X119152381Y-136338095D01*
X119152381Y-134814285D02*
X119152381Y-135385714D01*
X119152381Y-135100000D02*
X118152381Y-135100000D01*
X118295238Y-135195238D01*
X118390476Y-135290476D01*
X118438095Y-135385714D01*
X113985714Y-138942857D02*
X113985714Y-139914286D01*
X114042857Y-140028571D01*
X114100000Y-140085714D01*
X114214286Y-140142857D01*
X114442857Y-140142857D01*
X114557143Y-140085714D01*
X114614286Y-140028571D01*
X114671429Y-139914286D01*
X114671429Y-138942857D01*
X115185714Y-139057143D02*
X115242857Y-139000000D01*
X115357143Y-138942857D01*
X115642857Y-138942857D01*
X115757143Y-139000000D01*
X115814286Y-139057143D01*
X115871429Y-139171429D01*
X115871429Y-139285714D01*
X115814286Y-139457143D01*
X115128572Y-140142857D01*
X115871429Y-140142857D01*
X114228572Y-130842857D02*
X115028572Y-132042857D01*
X115028572Y-130842857D02*
X114228572Y-132042857D01*
X116114286Y-132042857D02*
X115428571Y-132042857D01*
X115771429Y-132042857D02*
X115771429Y-130842857D01*
X115657143Y-131014286D01*
X115542857Y-131128571D01*
X115428571Y-131185714D01*
M02*
